<?xml version="1.0" encoding="UTF-8"?>
<svg version="1.1" xmlns="http://www.w3.org/2000/svg" width="820" height="312">
<path d="M0 0 C1.60876511 0.61857628 1.60876511 0.61857628 3.25003052 1.24964905 C6.76946573 2.60671687 10.28112854 3.98278543 13.79296875 5.359375 C16.23273755 6.30470582 18.67292881 7.24894702 21.11352539 8.19213867 C28.10414604 10.89724999 35.08510112 13.62678878 42.06486511 16.3597641 C45.22769792 17.59743869 48.39171538 18.83207599 51.55566406 20.06689453 C66.04092356 25.72154485 80.51602123 31.40170144 94.98046875 37.109375 C93.98046875 40.109375 93.98046875 40.109375 91.984375 41.27734375 C91.17871094 41.61378906 90.37304688 41.95023438 89.54296875 42.296875 C88.73988281 42.64105469 87.93679687 42.98523438 87.109375 43.33984375 C84.98046875 44.109375 84.98046875 44.109375 82.98046875 44.109375 C82.98046875 51.369375 82.98046875 58.629375 82.98046875 66.109375 C85.95046875 67.099375 85.95046875 67.099375 88.98046875 68.109375 C92.06995222 71.44276506 93.25457724 74.14425288 93.48046875 78.609375 C93.2545033 83.08349096 92.03102401 85.73770866 88.98046875 89.109375 C84.63606199 92.24138918 81.22173399 92.4811282 76.09765625 91.6875 C72.26612772 90.64125236 69.88097285 88.6271858 67.875 85.24609375 C66.33480524 81.56711324 66.43808101 78.0213466 66.98046875 74.109375 C68.89266786 70.06433842 69.90528101 68.50556701 74.12890625 66.94921875 C75.06992188 66.67207031 76.0109375 66.39492187 76.98046875 66.109375 C76.95763121 62.04563693 76.88026911 57.98469924 76.79296875 53.921875 C76.78716797 52.77138672 76.78136719 51.62089844 76.77539062 50.43554688 C76.74638672 49.32373047 76.71738281 48.21191406 76.6875 47.06640625 C76.66393433 45.53463745 76.66393433 45.53463745 76.63989258 43.97192383 C75.73391715 40.03909827 74.10035431 38.62103938 70.98046875 36.109375 C67.84199501 34.44671475 67.84199501 34.44671475 64.328125 33.1640625 C63.68339737 32.91212128 63.03866974 32.66018005 62.37440491 32.40060425 C60.26876071 31.58198233 58.15630805 30.78289711 56.04296875 29.984375 C54.57566736 29.41918071 53.1087117 28.85308809 51.64208984 28.28613281 C23.30122935 15.35691773 23.30122935 15.35691773 -6.33203125 11.671875 C-10.01953125 12.109375 -10.01953125 12.109375 -12.01953125 11.109375 C-15.73241589 10.69683226 -17.56574629 10.84718814 -20.83203125 12.734375 C-23.50951081 15.6413528 -24.01953125 17.17378109 -24.01953125 21.109375 C-22.79751412 23.93930941 -21.68839839 25.58383653 -19.26953125 27.484375 C-15.1519565 28.62814576 -11.46253322 27.85037601 -7.70703125 25.921875 C-5.50631577 23.55814356 -4.95024065 21.16742017 -4.01953125 18.109375 C0.59796786 15.80062545 5.53554426 16.68766386 10.29638672 18.07714844 C14.20179226 19.47458647 18.06132286 20.95900095 21.91796875 22.484375 C23.33060363 23.0305133 24.74377881 23.57525599 26.1574707 24.11865234 C29.03329592 25.22669431 31.90568849 26.34299373 34.77539062 27.46679688 C38.73765726 29.01756568 42.70872275 30.54437437 46.68359375 32.0625 C62.76777199 38.21204269 62.76777199 38.21204269 69.98046875 41.109375 C69.98046875 41.769375 69.98046875 42.429375 69.98046875 43.109375 C59.59758277 47.73529002 49.07069968 51.70517681 38.35546875 55.484375 C34.92226758 56.69796699 31.48999758 57.91414772 28.05859375 59.1328125 C27.17031891 59.44804871 26.28204407 59.76328491 25.36685181 60.08807373 C18.53398357 62.52544286 11.74676851 65.07322792 4.96484375 67.6484375 C1.98315424 68.77018133 -0.99931721 69.88981728 -3.9821167 71.00860596 C-5.91173751 71.73792069 -7.83828594 72.47542074 -9.76153564 73.22137451 C-12.46237068 74.26792085 -15.17275529 75.28495607 -17.88671875 76.296875 C-18.67894836 76.61274567 -19.47117798 76.92861633 -20.28741455 77.25405884 C-26.14015625 79.38993599 -30.14477898 79.0260707 -36.01953125 77.109375 C-37.24486572 76.72031982 -38.4702002 76.33126465 -39.73266602 75.93041992 C-40.96299561 75.48802979 -42.1933252 75.04563965 -43.4609375 74.58984375 C-44.16249969 74.33871323 -44.86406189 74.0875827 -45.58688354 73.82884216 C-47.920813 72.99086041 -50.25148706 72.14422218 -52.58203125 71.296875 C-54.24550223 70.69639126 -55.90899573 70.09596993 -57.57250977 69.49560547 C-82.13964447 60.59968792 -106.57355457 51.33178679 -131.01953125 42.109375 C-131.01953125 41.119375 -131.01953125 40.129375 -131.01953125 39.109375 C-106.94073983 29.52619101 -82.79820896 20.12757015 -58.55462646 10.96890259 C-53.6397027 9.10990738 -48.73363187 7.22995471 -43.83572388 5.32658386 C-40.88092149 4.17964548 -37.92234086 3.04267945 -34.96307373 1.90731812 C-33.60485094 1.3833818 -32.24837282 0.85489554 -30.89385986 0.32144165 C-29.04206297 -0.40726903 -27.18326274 -1.11810639 -25.32421875 -1.828125 C-24.29280762 -2.22902344 -23.26139648 -2.62992188 -22.19873047 -3.04296875 C-13.81409956 -5.27852692 -7.81594398 -3.09439658 0 0 Z " fill="#1B84F8" transform="translate(155.01953125,41.890625)"/>
<path d="M0 0 C5.12766957 1.88634476 9.03859407 1.45114382 14.30078125 -0.08984375 C20.75914018 -1.47787471 28.0553353 -1.61623478 34.125 1 C39.4831475 6.49915138 41.30028099 12.037128 42.5 19.4375 C42.66822266 20.41589844 42.66822266 20.41589844 42.83984375 21.4140625 C44.40776949 32.53989172 43.81053408 44.10245689 42.75 55.25 C42.65755005 56.38779907 42.65755005 56.38779907 42.56323242 57.54858398 C42.1983159 60.89876773 41.7028645 63.1525023 39.734375 65.91796875 C35.85495358 68.5562466 32.00396596 68.14825875 27.5 67.4375 C24.875 66 24.875 66 23.5 63.4375 C22.84556391 58.72946725 23.53066335 54.01287155 24 49.3125 C24.43778283 44.74797022 24.66018368 40.21012326 24.75 35.625 C24.78867187 33.79001953 24.78867187 33.79001953 24.828125 31.91796875 C24.37876489 27.15154186 22.88567568 23.82317568 19.5 20.4375 C18.18 20.4375 16.86 20.4375 15.5 20.4375 C13.40760599 24.71681306 13.30354941 28.16881196 13.41015625 32.8984375 C13.43058121 34.35416328 13.45075569 35.8098926 13.47070312 37.265625 C13.51409921 39.53889348 13.5624862 41.81191867 13.61645508 44.08496094 C13.66508371 46.29361099 13.69471945 48.50194242 13.72265625 50.7109375 C13.75109619 52.02497559 13.77953613 53.33901367 13.80883789 54.69287109 C13.44820131 59.06555401 12.55322885 61.58264147 10.5 65.4375 C7.30254858 67.56913428 6.21242084 67.75725564 2.5 67.8125 C1.63375 67.84085937 0.7675 67.86921875 -0.125 67.8984375 C-2.5 67.4375 -2.5 67.4375 -4.13671875 65.953125 C-6.12229344 62.2891992 -5.81150577 58.77927374 -5.6875 54.7265625 C-5.67614014 53.88080658 -5.66478027 53.03505066 -5.65307617 52.16366577 C-5.60413979 48.55290118 -5.51985038 44.94316375 -5.43847656 41.33300781 C-5.38406166 38.69340775 -5.34787824 36.0539755 -5.3125 33.4140625 C-5.28760498 32.60450104 -5.26270996 31.79493958 -5.23706055 30.96084595 C-5.1730231 26.00152294 -5.84385031 22.79034373 -8.5 18.4375 C-11.41038542 18.46275184 -11.41038542 18.46275184 -14.5 19.4375 C-20.90516166 30.04074352 -19.66652455 42.69943305 -18.51855469 54.52905273 C-17.97885756 61.66914896 -17.97885756 61.66914896 -20.6328125 65.58203125 C-23.76517044 67.60910213 -25.36567647 68.11391618 -29.0625 68.0625 C-29.99191406 68.07539063 -30.92132812 68.08828125 -31.87890625 68.1015625 C-34.5 67.4375 -34.5 67.4375 -36.85546875 65.42578125 C-39.03426583 61.46668442 -38.68550378 58.34210199 -38.25 54 C-37.67372642 46.55542975 -37.45434593 39.17011708 -37.5234375 31.70703125 C-37.53032593 30.85518753 -37.53721436 30.00334381 -37.54431152 29.12568665 C-37.57514298 25.65304922 -37.60989877 22.18078995 -37.67028809 18.70852661 C-37.71233535 16.24054641 -37.73639169 13.77291997 -37.7578125 11.3046875 C-37.77645355 10.55552567 -37.7950946 9.80636383 -37.81430054 9.03450012 C-37.8395761 3.93057798 -37.8395761 3.93057798 -36.17138672 1.50830078 C-31.61950014 -1.40793856 -26.55438179 -0.98176159 -21.4375 0.0625 C-13.74960289 1.04393367 -8.0471264 -3.01940371 0 0 Z " fill="#1B84F8" transform="translate(583.5,159.5625)"/>
<path d="M0 0 C1.60294922 0.02320312 1.60294922 0.02320312 3.23828125 0.046875 C6.6875 0.25 6.6875 0.25 10.39550781 0.76318359 C14.54247513 1.29173001 18.63402638 1.32958485 22.80859375 1.2421875 C24.33658193 1.22467373 25.86457715 1.20776521 27.39257812 1.19140625 C29.76005192 1.16051656 32.12716035 1.12495771 34.49438477 1.07861328 C54.80542066 0.70322502 54.80542066 0.70322502 60.72265625 6.109375 C62.90982731 10.96188408 62.45143711 16.60859032 60.99609375 21.640625 C59.51152157 24.99488851 58.10400368 26.92720965 55.1875 29.1875 C50.94082547 30.47666905 46.91232837 30.80287177 42.4921875 31.0390625 C38.99621851 31.25992196 38.99621851 31.25992196 35.6875 32.25 C32.6287475 37.54081513 31.99094419 44.24548313 31.6875 50.25 C31.63464844 51.26707031 31.58179688 52.28414062 31.52734375 53.33203125 C31.35144984 60.02364742 31.90784285 66.2107601 33.1875 72.75 C35.06738246 82.41968642 36.98093021 92.41492224 31.6875 101.25 C25.80355498 105.62524117 19.78039567 105.68648589 12.6875 105.25 C8.67155305 104.59311648 5.16316763 103.68842726 2.6875 100.25 C0.16314804 92.67694411 2.15636221 84.98557902 3.9375 77.4375 C4.39557001 75.40387953 4.85258136 73.37002035 5.30859375 71.3359375 C5.5391748 70.31983398 5.76975586 69.30373047 6.00732422 68.25683594 C10.8030559 50.87707543 10.8030559 50.87707543 10.6875 33.25 C9.19252574 30.81205308 9.19252574 30.81205308 6.6875 29.25 C3.35020612 28.84101991 3.35020612 28.84101991 -0.25 29.125 C-4.82386908 29.35002458 -8.23866199 29.49940336 -12.3125 27.25 C-15.3734438 22.07806047 -16.23193555 17.20589915 -15.3125 11.25 C-13.97847292 7.12599155 -12.5499015 4.19094072 -9.0625 1.5390625 C-5.80405548 0.01166663 -3.58456373 -0.08585781 0 0 Z " fill="#1B84F8" transform="translate(265.3125,121.75)"/>
<path d="M0 0 C6.0394604 5.34811828 9.42204243 12.65752353 10.53125 20.6015625 C10.7391253 27.10896317 10.09311984 33.43519465 5.5390625 38.3828125 C2.3254614 41.23934681 -1.09944703 43.60253929 -4.87890625 45.6640625 C-3.08453125 46.19 -3.08453125 46.19 -1.25390625 46.7265625 C4.35541495 48.86108296 7.31999001 52.36770282 10.15625 57.55859375 C13.76475443 66.33649056 13.38768029 77.8628067 10.55859375 86.7890625 C7.83520387 93.17560355 3.79336256 96.17375874 -2.12890625 99.4765625 C-11.39892507 102.41206846 -19.75581859 102.10522714 -28.87890625 98.6640625 C-33.90939132 95.95076937 -36.25340184 92.08241054 -37.87890625 86.6640625 C-38.59648546 80.95332792 -38.172352 76.54744758 -34.87890625 71.6640625 C-32.26594353 68.98047917 -30.68650278 67.82207052 -27.00390625 67.1015625 C-23.23209834 67.78048792 -21.49867007 69.3511332 -18.55859375 71.68359375 C-16.76028244 72.99141018 -16.76028244 72.99141018 -13.94140625 71.9765625 C-13.26078125 71.5434375 -12.58015625 71.1103125 -11.87890625 70.6640625 C-11.5446489 68.29031389 -11.5446489 68.29031389 -11.87890625 65.6640625 C-15.76685196 61.91766822 -20.6994788 61.21662316 -25.78515625 59.921875 C-29.46647466 58.42517736 -30.83015055 57.04253945 -32.87890625 53.6640625 C-33.84221264 49.13085596 -33.48677429 44.99558296 -31.56640625 40.7890625 C-28.11834378 38.06268752 -24.6285239 36.98789836 -20.4375 35.75390625 C-17.48053506 34.49437462 -16.43463316 33.44989905 -14.87890625 30.6640625 C-14.49846072 26.00745185 -14.49846072 26.00745185 -15.87890625 21.6640625 C-19.41989756 21.41701659 -21.36325567 21.34964141 -24.44140625 23.2265625 C-26.87890625 24.6640625 -26.87890625 24.6640625 -29.44140625 24.6640625 C-33.45196591 23.01870469 -35.12234686 20.06369738 -37.12890625 16.3515625 C-38.15368533 12.67943745 -38.8268291 9.38283676 -37.87890625 5.6640625 C-33.83098841 0.32272713 -27.77146005 -2.20914561 -21.50390625 -4.0234375 C-13.55920545 -4.96923521 -6.70710728 -4.76887878 0 0 Z " fill="#1B84F8" transform="translate(425.87890625,125.3359375)"/>
<path d="M0 0 C2.43507111 4.87014221 0.95371835 11.78133892 0 17 C-1.4364659 19.52395985 -3.0689455 21.37613994 -5.0234375 23.515625 C-17.37900119 39.045543 -18.43868364 61.10181629 -17 80 C-16.2656563 85.53734841 -14.81177465 90.71367067 -13 96 C-12.649375 97.05058594 -12.29875 98.10117188 -11.9375 99.18359375 C-3.99083684 120.4022881 13.03953543 135.9052764 33.16796875 145.42578125 C55.11957028 154.76969526 78.0699697 154.46441108 100.25 146.125 C105.96011461 143.68894428 111.48418766 140.84320224 117 138 C118.03613033 139.23734984 119.05347802 140.49044637 120.0625 141.75 C120.63097656 142.44609375 121.19945312 143.1421875 121.78515625 143.859375 C123 146 123 146 122.9375 148.0859375 C119.49256249 155.11935158 107.15241109 158.24462425 100.09765625 160.67578125 C78.97432766 167.61216593 54.91888052 167.74433383 34 160 C33.29456055 159.74299316 32.58912109 159.48598633 31.86230469 159.22119141 C7.32970558 150.01722919 -10.97568254 131.80326515 -22.375 108.4375 C-31.90076174 86.5795198 -33.53779732 60.7073209 -26 38 C-25.79101074 37.3620752 -25.58202148 36.72415039 -25.36669922 36.06689453 C-22.15577383 26.52070512 -11.49955424 0 0 0 Z " fill="#1B84F8" transform="translate(72,110)"/>
<path d="M0 0 C7.29453033 3.81823072 9.98995323 9.68594244 13 17.046875 C16.47508933 28.5903648 16.20261388 41.24242002 16.25 53.171875 C16.270625 54.47769531 16.29125 55.78351563 16.3125 57.12890625 C16.36832145 70.93076025 16.36832145 70.93076025 13 77.046875 C8.49174959 80.48173246 3.49814916 80.77634378 -2 81.046875 C-3.14855469 81.11132812 -4.29710937 81.17578125 -5.48046875 81.2421875 C-14.93818752 81.54116702 -14.93818752 81.54116702 -19.625 79.359375 C-27.13059641 72.05129429 -29.89556875 64.21517152 -30.1875 53.796875 C-30.05912164 44.280829 -27.86499407 35.75285003 -21.51953125 28.4296875 C-17.51347669 24.78407487 -12.00524767 22.92384288 -7 21.046875 C-7 20.386875 -7 19.726875 -7 19.046875 C-11.10069434 18.78701111 -11.10069434 18.78701111 -14.91796875 20.03515625 C-17.29405669 21.18976559 -18.93398025 21.34603226 -21.5625 21.359375 C-22.70912109 21.38451172 -22.70912109 21.38451172 -23.87890625 21.41015625 C-26.51724912 20.95828537 -27.3494956 20.10875132 -29 18.046875 C-30.86581821 14.31523858 -30.55464677 10.11012999 -30 6.046875 C-28.35457408 2.68774823 -26.09032817 0.58924337 -22.71484375 -1.08984375 C-15.39429122 -3.41767412 -7.1573255 -2.51624725 0 0 Z M-7 41.046875 C-10.38584509 44.9253695 -10.4373055 47.64099589 -10.3046875 52.62890625 C-9.92209997 55.66508163 -8.90422659 57.66659176 -7 60.046875 C-3.06924356 59.47234754 -3.06924356 59.47234754 0 57.046875 C1.77614102 51.44519949 0.05932884 47.2824568 -2 42.046875 C-3.65 41.716875 -5.3 41.386875 -7 41.046875 Z " fill="#1B84F8" transform="translate(356,145.953125)"/>
<path d="M0 0 C1.96453125 -0.04253906 1.96453125 -0.04253906 3.96875 -0.0859375 C7.5 0.375 7.5 0.375 9.9140625 2.19140625 C12.88209373 6.27793201 12.79037619 10.40213507 12.08129883 15.21972656 C11.80322388 16.88213379 11.80322388 16.88213379 11.51953125 18.578125 C10.01029213 28.80784406 10.23674884 39.10105053 10.29418945 49.41723633 C10.31244512 52.8023232 10.31469837 56.18713457 10.31445312 59.57226562 C10.33366113 71.21781232 10.61498512 82.76285613 11.5 94.375 C11.67429211 97.10837204 11.79596536 99.82364578 11.875 102.5625 C11.92398437 103.75230469 11.97296875 104.94210938 12.0234375 106.16796875 C11.34365753 110.3328893 9.70785537 111.74031999 6.5 114.375 C1.82144662 116.71427669 -4.42021635 115.86886785 -9.5 115.375 C-12.8125 113.5 -12.8125 113.5 -14.5 110.375 C-15.90375904 103.28461803 -15.28999167 96.4356908 -14.5625 89.3125 C-13.35684548 75.62986179 -13.29902767 61.97804388 -13.3125 48.25 C-13.31186554 47.19755096 -13.31123108 46.14510193 -13.31057739 45.0607605 C-13.31136072 33.56435264 -13.47550587 22.19173706 -14.58081055 10.74267578 C-14.49051595 6.97976441 -13.76470503 5.33159434 -11.5 2.375 C-8.01617164 -0.23787127 -4.2324016 0.0416575 0 0 Z " fill="#1B84F8" transform="translate(470.5,112.625)"/>
<path d="M0 0 C2.53091362 3.65825273 2.66213191 8.25592045 3.3828125 12.56640625 C4.39504347 16.16591637 5.47182061 17.57708743 8.32421875 19.9140625 C8.5665625 18.80546875 8.80890625 17.696875 9.05859375 16.5546875 C9.39637469 15.09097007 9.73495873 13.62743781 10.07421875 12.1640625 C10.31011719 11.06964844 10.31011719 11.06964844 10.55078125 9.953125 C11.58357086 5.58363051 12.5056441 2.64060935 16.32421875 -0.0859375 C22.52164293 -1.61720768 29.58066103 0.54715214 35.32421875 2.9140625 C37.32421875 4.9140625 37.32421875 4.9140625 37.83984375 7.6328125 C37.09584556 12.36734643 34.53749548 14.29192224 31.07421875 17.4140625 C26.17286104 21.94916491 21.85424863 26.08898779 19.32421875 32.4140625 C19.32421875 37.11199302 22.29820031 39.86893757 25.421875 43.05078125 C26.19402344 43.81003906 26.96617187 44.56929687 27.76171875 45.3515625 C37.1397982 54.59036354 37.1397982 54.59036354 37.63671875 60.8515625 C37.48203125 62.3675 37.48203125 62.3675 37.32421875 63.9140625 C31.79827517 66.86979976 27.46626128 67.95403501 21.26171875 68.2265625 C20.00681641 68.28263672 20.00681641 68.28263672 18.7265625 68.33984375 C15.39049904 67.74857397 14.36699091 66.59275094 12.32421875 63.9140625 C11.05859375 60.6796875 11.05859375 60.6796875 10.07421875 57.1640625 C9.7390625 55.99359375 9.40390625 54.823125 9.05859375 53.6171875 C8.81625 52.72515625 8.57390625 51.833125 8.32421875 50.9140625 C5.74414114 54.78417892 4.69561809 58.77967009 3.32421875 63.19921875 C2.32421875 65.9140625 2.32421875 65.9140625 0.32421875 67.9140625 C-7.09500673 69.00475206 -13.23887574 67.64147988 -19.67578125 63.9140625 C-20.67578125 62.9140625 -20.67578125 62.9140625 -21.23828125 59.9765625 C-21.16590091 54.10169148 -16.44911345 49.98321342 -12.67578125 45.9140625 C-10.82295969 44.15634775 -8.97404865 42.42581012 -7.0234375 40.77734375 C-4.90652224 37.85047831 -4.72961322 35.48619855 -4.67578125 31.9140625 C-6.27357937 29.0300211 -6.27357937 29.0300211 -8.73828125 26.5390625 C-20.38167062 13.36986235 -20.38167062 13.36986235 -20.92578125 6.9765625 C-20.67578125 3.9140625 -20.67578125 3.9140625 -19.61328125 2.1640625 C-14.70232533 -1.00429616 -5.33226363 -3.45540627 0 0 Z " fill="#1B84F8" transform="translate(664.67578125,159.0859375)"/>
<path d="M0 0 C0 1.65 0 3.3 0 5 C-4.12276549 6.67223282 -8.24856675 8.33684063 -12.375 10 C-13.550625 10.47695312 -14.72625 10.95390625 -15.9375 11.4453125 C-17.05898437 11.89648438 -18.18046875 12.34765625 -19.3359375 12.8125 C-20.37282715 13.23144531 -21.4097168 13.65039062 -22.47802734 14.08203125 C-25 15 -25 15 -27 15 C-26.505 15.99 -26.505 15.99 -26 17 C-22.65795843 16.3989558 -19.59792331 15.57790527 -16.42578125 14.37109375 C-15.59369141 14.05849609 -14.76160156 13.74589844 -13.90429688 13.42382812 C-13.04900391 13.09833984 -12.19371094 12.77285156 -11.3125 12.4375 C-9.60138279 11.78740268 -7.88919168 11.14012273 -6.17578125 10.49609375 C-5.42208252 10.20919678 -4.66838379 9.9222998 -3.8918457 9.62670898 C-2 9 -2 9 0 9 C0.3125 11.3125 0.3125 11.3125 0 14 C-4.58005165 17.3771198 -10.05130132 18.92760437 -15.38085938 20.75 C-19.92624864 22.34956151 -19.92624864 22.34956151 -23 26 C-21.13794922 25.36771484 -21.13794922 25.36771484 -19.23828125 24.72265625 C-17.59640822 24.16911049 -15.95447812 23.61573396 -14.3125 23.0625 C-13.08756836 22.64581055 -13.08756836 22.64581055 -11.83789062 22.22070312 C-7.9154656 20.90264127 -4.09869486 19.65946414 0 19 C-0.19140625 21.3125 -0.19140625 21.3125 -1 24 C-9.19665056 30.37347034 -21.05604835 32.72161024 -31 35 C-31.8053418 35.18908936 -32.61068359 35.37817871 -33.44042969 35.57299805 C-41.64222116 37.29512879 -49.78690036 37.35544775 -58.125 37.3125 C-59.2226619 37.30976578 -59.2226619 37.30976578 -60.34249878 37.30697632 C-71.16823407 37.26152425 -81.49034249 36.82650341 -92 34 C-92.69883301 33.81244141 -93.39766602 33.62488281 -94.11767578 33.43164062 C-101.55493846 31.39023341 -108.45419978 29.14677268 -115 25 C-116.50156874 21.99686252 -116.09281204 19.20932478 -116.0625 15.875 C-116.05347656 14.59367187 -116.04445313 13.31234375 -116.03515625 11.9921875 C-116.02355469 11.00476563 -116.01195313 10.01734375 -116 9 C-109.90794144 10.64607718 -104.03206753 12.70536267 -98.15625 14.98828125 C-96.73061181 15.53487848 -95.30482806 16.08109621 -93.87890625 16.62695312 C-91.68199351 17.46842328 -89.48922337 18.31680035 -87.30419922 19.1887207 C-75.38331417 23.98593731 -75.38331417 23.98593731 -63 22 C-61.99098633 21.65638428 -60.98197266 21.31276855 -59.94238281 20.95874023 C-56.39571443 19.71864459 -52.88667279 18.39834913 -49.375 17.0625 C-46.73505365 16.07277693 -44.09245949 15.09026195 -41.44921875 14.109375 C-40.4287722 13.73006584 -40.4287722 13.73006584 -39.38771057 13.34309387 C-31.36470413 10.37373056 -23.27988797 7.58597392 -15.1875 4.8125 C-14.47865662 4.56871613 -13.76981323 4.32493225 -13.03948975 4.07376099 C-1.18788942 0 -1.18788942 0 0 0 Z " fill="#1B84F8" transform="translate(198,105)"/>
<path d="M0 0 C1.98 0 3.96 0 6 0 C6.33 12.54 6.66 25.08 7 38 C12.94 38 18.88 38 25 38 C21.93635347 30.38199495 21.93635347 30.38199495 18.25 27.9375 C16 26 16 26 15.6875 22.25 C15.790625 21.1775 15.89375 20.105 16 19 C22.35438484 15.4533666 28.81597319 15.07244211 36 16 C40.05615543 18.02238087 42.2906993 19.72674824 44 24 C44 31.26365653 43.1876435 31.7748278 38 38 C43.28 38 48.56 38 54 38 C54.33 31.07 54.66 24.14 55 17 C57.31 17 59.62 17 62 17 C62.05421223 20.04190863 62.09377548 23.08283999 62.125 26.125 C62.14175781 26.9809375 62.15851563 27.836875 62.17578125 28.71875 C62.21285833 33.53877043 61.99862972 37.51356545 60 42 C58 44 58 44 55.85025024 44.24050903 C54.96074677 44.23606781 54.07124329 44.23162659 53.15478516 44.22705078 C52.14678864 44.22689972 51.13879211 44.22674866 50.10025024 44.22659302 C48.46121231 44.21110916 48.46121231 44.21110916 46.7890625 44.1953125 C45.6693808 44.1924826 44.5496991 44.18965271 43.39608765 44.18673706 C39.80561782 44.17551557 36.21539466 44.15042637 32.625 44.125 C30.21094113 44.11497108 27.79687832 44.10584508 25.3828125 44.09765625 C20.05637595 44.07796012 14.73006699 44.04951584 9.40371704 44.01345825 C6.07982213 43.99484799 2.75738412 44.00239161 -0.56640625 44.03515625 C-2.54447266 44.04869141 -2.54447266 44.04869141 -4.5625 44.0625 C-5.23474609 44.07087891 -5.90699219 44.07925781 -6.59960938 44.08789062 C-9.68605627 44.10321558 -12.04739138 43.98420287 -15 43 C-15.99 43.495 -15.99 43.495 -17 44 C-19.80196291 44.09861981 -22.57354047 44.13896076 -25.375 44.125 C-26.52742187 44.13080078 -26.52742187 44.13080078 -27.703125 44.13671875 C-28.44820312 44.13542969 -29.19328125 44.13414062 -29.9609375 44.1328125 C-30.97873291 44.13112061 -30.97873291 44.13112061 -32.01708984 44.12939453 C-34 44 -34 44 -36.12744141 43.42919922 C-38.07687518 42.77354795 -38.07687518 42.77354795 -40 44 C-51.23793566 44.94101877 -51.23793566 44.94101877 -56 41 C-56.99 41.66 -57.98 42.32 -59 43 C-59.58687784 46.34613512 -59.58687784 46.34613512 -59.6875 50.125 C-59.75324219 51.40632813 -59.81898438 52.68765625 -59.88671875 54.0078125 C-59.92410156 54.99523437 -59.96148437 55.98265625 -60 57 C-62.31 57 -64.62 57 -67 57 C-67.0814222 54.77144426 -67.13938079 52.54202345 -67.1875 50.3125 C-67.22230469 49.07113281 -67.25710938 47.82976562 -67.29296875 46.55078125 C-66.97671327 42.71776482 -66.44399432 40.94233589 -64 38 C-61.3125 36.6875 -61.3125 36.6875 -59 36 C-58.96261719 35.19175781 -58.92523438 34.38351562 -58.88671875 33.55078125 C-58.82097656 32.48214844 -58.75523437 31.41351563 -58.6875 30.3125 C-58.62949219 29.25675781 -58.57148438 28.20101563 -58.51171875 27.11328125 C-57.80462207 22.81132667 -56.27348541 20.2251252 -53.1484375 17.21875 C-49.04581374 14.89144343 -44.55191642 15.27642947 -40 16 C-36.82717605 17.66019858 -34.62409867 19.75180266 -33 23 C-32.72367142 26.04838667 -32.55341702 29.09654869 -32.37890625 32.15234375 C-32.18632627 35.19729591 -32.18632627 35.19729591 -30 38 C-27.79274927 38.36362818 -27.79274927 38.36362818 -25.375 38.1875 C-24.55773437 38.16042969 -23.74046875 38.13335937 -22.8984375 38.10546875 C-21.95871094 38.05326172 -21.95871094 38.05326172 -21 38 C-19.85345518 35.70691037 -19.80270883 34.20090344 -19.68359375 31.6484375 C-19.62075195 30.37226563 -19.62075195 30.37226563 -19.55664062 29.0703125 C-19.51732422 28.18085938 -19.47800781 27.29140625 -19.4375 26.375 C-19.37272461 25.02921875 -19.37272461 25.02921875 -19.30664062 23.65625 C-19.20043139 21.43765717 -19.09838806 19.2189512 -19 17 C-17.02 17 -15.04 17 -13 17 C-12.67 23.6 -12.34 30.2 -12 37 C-8.74696956 38.62651522 -5.60774398 38.11453156 -2 38 C0.0568946 35.9431054 -0.74252924 31.64444002 -0.68359375 28.80859375 C-0.6524221 27.57883568 -0.6524221 27.57883568 -0.62062073 26.32423401 C-0.55503506 23.69541099 -0.49619874 21.06648496 -0.4375 18.4375 C-0.39432333 16.65949439 -0.35070933 14.88149935 -0.30664062 13.10351562 C-0.19934457 8.73578366 -0.09810296 4.36794773 0 0 Z M-49.6875 23 C-52.27469383 26.35635957 -52.76576341 27.93938007 -52.484375 32.05859375 C-51.6143643 35.54565275 -49.90922988 37.03943204 -47 39 C-43.80857748 39.26010343 -43.80857748 39.26010343 -41 38 C-38.52751201 35.19035455 -38.52737238 31.62860661 -38.609375 27.97265625 C-39.28541995 24.55862924 -41.30521259 23.00542319 -44 21 C-47.15722061 20.70149462 -47.15722061 20.70149462 -49.6875 23 Z M23 23 C23.61488281 23.67095703 23.61488281 23.67095703 24.2421875 24.35546875 C27.25640074 27.73744485 29.66050545 30.579668 31 35 C33.5841005 33.45198044 33.5841005 33.45198044 36 31 C36.89055736 27.35817665 36.89055736 27.35817665 37 24 C31.74882423 20.39919376 28.57628053 20.04091667 23 23 Z " fill="#1B84F8" transform="translate(560,232)"/>
<path d="M0 0 C1.65 0.99 3.3 1.98 5 3 C3.3718356 6.75730247 0.98598083 9.616823 -1.625 12.75 C-2.44226563 13.73484375 -3.25953125 14.7196875 -4.1015625 15.734375 C-4.72804688 16.48203125 -5.35453125 17.2296875 -6 18 C-5.11248047 17.94779297 -5.11248047 17.94779297 -4.20703125 17.89453125 C0.69023752 17.72676185 4.08879412 17.68140107 8 21 C10.34329121 24.53968989 10.29913541 27.76329444 10.3125 31.9375 C10.32925781 33.14277344 10.34601563 34.34804688 10.36328125 35.58984375 C9.97507328 39.2339895 9.19429477 41.10096822 7 44 C4.1582126 45.4208937 1.74016255 45.12979255 -1.43359375 45.1328125 C-2.72201172 45.13410156 -4.01042969 45.13539063 -5.33789062 45.13671875 C-6.01053955 45.13462402 -6.68318848 45.1325293 -7.3762207 45.13037109 C-9.42601965 45.12502991 -11.47559859 45.13031546 -13.52539062 45.13671875 C-15.45995117 45.13478516 -15.45995117 45.13478516 -17.43359375 45.1328125 C-19.21334595 45.13112061 -19.21334595 45.13112061 -21.02905273 45.12939453 C-24 45 -24 45 -27 44 C-27.99 44.495 -27.99 44.495 -29 45 C-30.81041793 45.09632897 -32.62452753 45.12981533 -34.4375 45.125 C-35.40558594 45.12757813 -36.37367188 45.13015625 -37.37109375 45.1328125 C-40 45 -40 45 -43 44 C-43.99 44.495 -43.99 44.495 -45 45 C-46.81041793 45.09632897 -48.62452753 45.12981533 -50.4375 45.125 C-51.40558594 45.12757813 -52.37367188 45.13015625 -53.37109375 45.1328125 C-56 45 -56 45 -59 44 C-59.33 44.33 -59.66 44.66 -60 45 C-62.80177966 45.10027422 -65.57349112 45.13873289 -68.375 45.125 C-69.15617187 45.12886719 -69.93734375 45.13273437 -70.7421875 45.13671875 C-74.0765946 45.13100915 -76.81606986 45.06131005 -80 44 C-80.99 44.495 -80.99 44.495 -82 45 C-84.55157655 45.0716735 -87.07472971 45.09308442 -89.625 45.0625 C-90.33140625 45.05798828 -91.0378125 45.05347656 -91.765625 45.04882812 C-93.51045275 45.03703875 -95.255237 45.01910324 -97 45 C-97.061875 46.216875 -97.12375 47.43375 -97.1875 48.6875 C-97.62102821 51.98582949 -98.09103535 53.13241505 -100.0625 56 C-104.0433451 58.71036262 -106.26650367 58.40114376 -111 58 C-111 56.35 -111 54.7 -111 53 C-110.195625 52.690625 -109.39125 52.38125 -108.5625 52.0625 C-106.10919595 51.23664655 -106.10919595 51.23664655 -105 50 C-104.84028023 47.62661361 -104.7407567 45.27881728 -104.68359375 42.90234375 C-104.66281265 42.19348526 -104.64203156 41.48462677 -104.62062073 40.75428772 C-104.55505402 38.48212695 -104.4962077 36.20984736 -104.4375 33.9375 C-104.39432151 32.40037817 -104.35070745 30.8632685 -104.30664062 29.32617188 C-104.19936551 25.5509041 -104.09811863 21.7755164 -104 18 C-102.02 18 -100.04 18 -98 18 C-97.98541748 18.56509277 -97.97083496 19.13018555 -97.95581055 19.71240234 C-97.88143942 22.26730019 -97.78474758 24.82087498 -97.6875 27.375 C-97.66494141 28.26445312 -97.64238281 29.15390625 -97.61914062 30.0703125 C-97.58369141 30.92109375 -97.54824219 31.771875 -97.51171875 32.6484375 C-97.48553467 33.43395996 -97.45935059 34.21948242 -97.43237305 35.02880859 C-97.15110403 37.40040156 -97.15110403 37.40040156 -94 39 C-91.94290404 39.24055468 -91.94290404 39.24055468 -89.8125 39.125 C-88.554375 39.08375 -87.29625 39.0425 -86 39 C-84.85345518 36.70691037 -84.80270883 35.20090344 -84.68359375 32.6484375 C-84.64169922 31.79765625 -84.59980469 30.946875 -84.55664062 30.0703125 C-84.51732422 29.18085938 -84.47800781 28.29140625 -84.4375 27.375 C-84.39431641 26.4778125 -84.35113281 25.580625 -84.30664062 24.65625 C-84.20043139 22.43765717 -84.09838806 20.2189512 -84 18 C-82.02 18 -80.04 18 -78 18 C-77.67 24.6 -77.34 31.2 -77 38 C-74.49860398 39.25069801 -72.72607309 39.13302467 -69.9375 39.125 C-69.03902344 39.12757813 -68.14054687 39.13015625 -67.21484375 39.1328125 C-65.02621107 39.24738223 -65.02621107 39.24738223 -64 38 C-63.76472227 35.65012738 -63.58613583 33.29443961 -63.4375 30.9375 C-63.35371094 29.64714844 -63.26992188 28.35679687 -63.18359375 27.02734375 C-63.09271484 25.52880859 -63.09271484 25.52880859 -63 24 C-61.02 24 -59.04 24 -57 24 C-56.505 31.425 -56.505 31.425 -56 39 C-53.69 39 -51.38 39 -49 39 C-47.05909174 37.05909174 -47.60080565 33.52706098 -47.4375 30.9375 C-47.35371094 29.64714844 -47.26992188 28.35679687 -47.18359375 27.02734375 C-47.09271484 25.52880859 -47.09271484 25.52880859 -47 24 C-45.02 24 -43.04 24 -41 24 C-40.505 30.93 -40.505 30.93 -40 38 C-37.69 38.33 -35.38 38.66 -33 39 C-31.85345518 36.70691037 -31.80270883 35.20090344 -31.68359375 32.6484375 C-31.64169922 31.79765625 -31.59980469 30.946875 -31.55664062 30.0703125 C-31.51732422 29.18085938 -31.47800781 28.29140625 -31.4375 27.375 C-31.37272461 26.02921875 -31.37272461 26.02921875 -31.30664062 24.65625 C-31.20043139 22.43765717 -31.09838806 20.2189512 -31 18 C-29.02 18 -27.04 18 -25 18 C-24.67 24.6 -24.34 31.2 -24 38 C-21.51831386 39.24084307 -19.83573801 39.12933103 -17.0625 39.1328125 C-16.08539063 39.13410156 -15.10828125 39.13539063 -14.1015625 39.13671875 C-12.56628906 39.13091797 -12.56628906 39.13091797 -11 39.125 C-9.97648437 39.12886719 -8.95296875 39.13273437 -7.8984375 39.13671875 C-6.92132813 39.13542969 -5.94421875 39.13414062 -4.9375 39.1328125 C-3.58978516 39.13112061 -3.58978516 39.13112061 -2.21484375 39.12939453 C0.04131125 39.14363084 0.04131125 39.14363084 2 38 C2 34.04 2 30.08 2 26 C-2.0433647 23.97831765 -4.32129345 23.64072239 -8.75 23.375 C-9.92046875 23.30023438 -11.0909375 23.22546875 -12.296875 23.1484375 C-13.18890625 23.09945312 -14.0809375 23.05046875 -15 23 C-15.35094166 19.33638174 -15.37829047 17.54389763 -13.2421875 14.47265625 C-12.46101563 13.67730469 -11.67984375 12.88195312 -10.875 12.0625 C-10.05902344 11.21042969 -9.24304688 10.35835937 -8.40234375 9.48046875 C-7.21318359 8.25263672 -7.21318359 8.25263672 -6 7 C-4.80036886 5.63557104 -3.61079896 4.26213762 -2.4375 2.875 C-1.633125 1.92625 -0.82875 0.9775 0 0 Z " fill="#1B84F8" transform="translate(449,231)"/>
<path d="M0 0 C2.6714453 1.99893443 4.69708122 3.59247015 5.4234314 6.96749878 C5.5455834 9.36270559 5.50953614 11.70886369 5.41796875 14.10546875 C5.40615067 14.98471512 5.39433258 15.86396149 5.38215637 16.76985168 C5.34104447 19.57676128 5.26631038 22.38141673 5.1875 25.1875 C5.12440594 27.97548381 5.06879593 30.76323529 5.02497864 33.55158997 C4.99621596 35.28270458 4.95591292 37.01368318 4.9016571 38.7441864 C4.79649253 43.93450517 5.35736922 48.61451506 6.53266907 53.67378235 C7.2740186 57.36397327 7.70705012 61.28228484 7 65 C5.07503634 67.4443087 4.02891388 67.99036204 1 69 C-5.00591751 69.53753479 -9.82941935 69.44705377 -15 66 C-16.56332374 62.87335251 -16.09972437 59.55397865 -16.0625 56.125 C-16.05871338 55.32707031 -16.05492676 54.52914062 -16.05102539 53.70703125 C-16.03479393 50.29908761 -16.00726293 46.89126497 -15.97949219 43.48339844 C-15.96091324 40.98893057 -15.94750442 38.49451662 -15.9375 36 C-15.93355225 35.17443604 -15.92960449 34.34887207 -15.92553711 33.49829102 C-15.92617924 26.91704467 -16.24915231 20.37886852 -16.82006836 13.82226562 C-17.12912217 9.67583384 -17.0059025 6.68431071 -15 3 C-10.91422615 -0.70273255 -5.25100146 -1.24711285 0 0 Z " fill="#1B84F8" transform="translate(520,158)"/>
<path d="M0 0 C8.25 0 16.5 0 25 0 C25.70125 3.650625 26.4025 7.30125 27.125 11.0625 C30.10993471 25.74114614 35.01332202 45.01332202 46 56 C45.67 56.99 45.34 57.98 45 59 C25.91208042 49.84654593 11.0608552 35.9260084 3 16 C1.12235384 10.48129094 0 5.85890336 0 0 Z " fill="#1B84F8" transform="translate(77,186)"/>
<path d="M0 0 C8.25 0 16.5 0 25 0 C22.67107305 13.97356171 22.67107305 13.97356171 19.3125 20.6875 C18.7851123 21.77466309 18.7851123 21.77466309 18.24707031 22.88378906 C15.45013878 28.4801651 12.14163463 33.30614742 8 38 C7.40960938 38.78890625 6.81921875 39.5778125 6.2109375 40.390625 C3.54482937 43.53719785 0.62075254 45.975086 -2.625 48.5 C-3.24020508 48.98122314 -3.85541016 49.46244629 -4.48925781 49.95825195 C-16.3113088 59 -16.3113088 59 -22 59 C-20.54084668 55.87213412 -18.76508254 52.99666777 -16.9284668 50.07836914 C-7.22273052 34.50535745 -2.02480642 18.22325781 0 0 Z " fill="#1B84F8" transform="translate(178,186)"/>
<path d="M0 0 C8.25 0 16.5 0 25 0 C25 19.47 25 38.94 25 59 C18.23546526 53.36288772 18.23546526 53.36288772 16.69140625 50.6796875 C16.16474365 49.7681189 16.16474365 49.7681189 15.62744141 48.83813477 C15.10029541 47.86638306 15.10029541 47.86638306 14.5625 46.875 C14.18270996 46.18269287 13.80291992 45.49038574 13.41162109 44.77709961 C6.29735478 31.37861439 0 15.41127058 0 0 Z " fill="#1B84F8" transform="translate(111,186)"/>
<path d="M0 0 C7.92 0 15.84 0 24 0 C24 19.78644044 15.64254906 39.25796183 4 55 C3.34 55.99 2.68 56.98 2 58 C1.34 58 0.68 58 0 58 C0 38.86 0 19.72 0 0 Z " fill="#1B84F8" transform="translate(145,186)"/>
<path d="M0 0 C7.21930632 1.44386126 14.05110733 3.57788174 21 6 C20.61378945 10.86828564 20.16786296 15.62510959 19 20.375 C17.82042005 25.83055726 17.46352855 31.4376574 17 37 C8.42 37 -0.16 37 -9 37 C-8.5282926 23.43841218 -6.62425434 12.06560611 0 0 Z " fill="#1B84F8" transform="translate(85,141)"/>
<path d="M0 0 C4.00312642 4.00312642 5.21223387 6.73374778 6.6875 11.9375 C7.00557617 12.99227539 7.00557617 12.99227539 7.33007812 14.06835938 C9.79723905 22.37265181 10.08753874 29.33366491 10 38 C2.41 38 -5.18 38 -13 38 C-14.99151226 34.01697548 -15.55141296 30.82441994 -16 26.5 C-16.16204594 25.07268628 -16.32613136 23.64560273 -16.4921875 22.21875 C-16.57436523 21.51105469 -16.65654297 20.80335938 -16.74121094 20.07421875 C-17.32985286 15.3561982 -18.18060845 10.68223743 -19 6 C-12.73 4.02 -6.46 2.04 0 0 Z " fill="#1B84F8" transform="translate(193,140)"/>
<path d="M0 0 C4.05509416 2.01894363 6.44021245 4.25173966 9 8 C10.91744244 13.89108961 10.78404574 20.60430467 8.875 26.4375 C6.54070531 29.62770274 4.76129451 31.7600128 1 33 C-4.54024463 33.77058558 -10.20637135 34.28971763 -15.39453125 31.89453125 C-19.55048674 28.63101252 -21.18398137 25.25878674 -22 20 C-22.4678249 14.10540631 -21.99170138 9.20095779 -19 4 C-13.95339121 -1.31221978 -6.87226283 -0.95471987 0 0 Z M-11.1875 9.625 C-13.23468995 11.9089578 -13.23468995 11.9089578 -13.4375 15 C-12.9445448 18.38026421 -12.62541413 19.79803976 -10 22 C-6.5515649 22.43105439 -4.14534735 22.57267368 -1 21 C0.37631081 18.24737838 0.14245668 15.8610715 -0.3515625 12.875 C-0.91621072 10.72392131 -0.91621072 10.72392131 -3.375 9 C-6.78343296 7.70154935 -8.20366596 7.40843757 -11.1875 9.625 Z " fill="#1B84F8" transform="translate(520,111)"/>
<path d="M0 0 C3 1 3 1 4.68359375 3.88671875 C5.2823077 5.14705379 5.86605663 6.41456823 6.4375 7.6875 C6.74316895 8.35579834 7.04883789 9.02409668 7.36376953 9.71264648 C17.17397305 31.82069654 17.87177983 55.92154284 9.75 78.625 C3.19854989 94.6159655 -8.21417685 111.09750678 -24.69140625 118.15234375 C-26.76623116 118.85694 -28.88049758 119.44406494 -31 120 C-28.39788372 117.34487765 -25.7742414 114.76620595 -22.984375 112.30859375 C-4.70805815 96.16905323 7.40450645 75.53916293 9.2265625 50.94140625 C9.60712105 37.08561539 6.73041819 24.54795751 1 12 C0.32508489 10.32391929 -0.32374167 8.63692863 -0.9375 6.9375 C-1.19402344 6.24527344 -1.45054687 5.55304688 -1.71484375 4.83984375 C-2 3 -2 3 0 0 Z " fill="#1B84F8" transform="translate(205,129)"/>
<path d="M0 0 C0.99 0.33 1.98 0.66 3 1 C4 4 4 4 2.92578125 6.6796875 C2.39339844 7.73414063 1.86101562 8.78859375 1.3125 9.875 C-7.76923383 28.77767856 -10.66938356 50.90028598 -3.74072266 71.04980469 C0.03351874 80.98673294 5.0102603 89.96852025 12 98 C12.6496875 98.86238281 12.6496875 98.86238281 13.3125 99.7421875 C18.77391956 106.79652109 26.63690969 112.09127313 34 117 C33.67 117.66 33.34 118.32 33 119 C12.50185737 109.693544 -1.13307536 95.65490388 -9.3203125 74.60546875 C-16.84725227 51.55073102 -14.8680067 28.88230485 -5 7 C-3.47847098 4.40468358 -1.95183553 2.2962771 0 0 Z " fill="#1B84F8" transform="translate(73,131)"/>
<path d="M0 0 C2.75031587 0.14111883 5.50015418 0.28771165 8.25 0.4375 C9.41595703 0.49647461 9.41595703 0.49647461 10.60546875 0.55664062 C11.73662109 0.61948242 11.73662109 0.61948242 12.890625 0.68359375 C13.92751465 0.73858032 13.92751465 0.73858032 14.98535156 0.79467773 C17 1 17 1 21 2 C21 10.91 21 19.82 21 29 C12.75 29 4.5 29 -4 29 C-3.55944493 18.86723339 -2.67027168 9.80779034 0 0 Z " fill="#1B84F8" transform="translate(115,149)"/>
<path d="M0 0 C0.4839655 1.54016694 0.96192387 3.08222194 1.4375 4.625 C1.70433594 5.48351562 1.97117188 6.34203125 2.24609375 7.2265625 C4.23420672 14.54034595 4.07695098 21.45880388 4 29 C-3.92 29 -11.84 29 -20 29 C-20 20.09 -20 11.18 -20 2 C-17.81375 1.67 -15.6275 1.34 -13.375 1 C-12.14523438 0.814375 -10.91546875 0.62875 -9.6484375 0.4375 C-6.3833973 0.04597484 -3.28287549 -0.08080924 0 0 Z " fill="#1B84F8" transform="translate(165,149)"/>
<path d="M0 0 C1.98 0 3.96 0 6 0 C6 14.52 6 29.04 6 44 C4.02 44 2.04 44 0 44 C0 29.48 0 14.96 0 0 Z " fill="#1B84F8" transform="translate(466,232)"/>
<path d="M0 0 C1.98 0 3.96 0 6 0 C6 14.52 6 29.04 6 44 C4.02 44 2.04 44 0 44 C0 29.48 0 14.96 0 0 Z " fill="#1B84F8" transform="translate(327,232)"/>
<path d="M0 0 C0 1.32 0 2.64 0 4 C-3.64431684 5.44136505 -7.29072225 6.87737392 -10.9375 8.3125 C-12.46987305 8.91868164 -12.46987305 8.91868164 -14.03320312 9.53710938 C-17.0156958 10.70914324 -20.00432689 11.8621008 -23 13 C-23.86512207 13.32919434 -24.73024414 13.65838867 -25.62158203 13.99755859 C-26.40774902 14.28066895 -27.19391602 14.5637793 -28.00390625 14.85546875 C-28.68396729 15.10321045 -29.36402832 15.35095215 -30.06469727 15.60620117 C-32.34505556 16.07021252 -33.80868007 15.71556423 -36 15 C-32.83603043 11.35814681 -29.8629555 9.88491648 -25.37109375 8.203125 C-24.74018326 7.9646283 -24.10927277 7.72613159 -23.45924377 7.48040771 C-22.13238804 6.98130135 -20.8035541 6.48742575 -19.47290039 5.99853516 C-17.43613715 5.2494988 -15.40633708 4.48362041 -13.37695312 3.71484375 C-3.45234855 0 -3.45234855 0 0 0 Z " fill="#1B84F8" transform="translate(225,89)"/>
<path d="M0 0 C2.31 0 4.62 0 7 0 C7 1.65 7 3.3 7 5 C4.69 5 2.38 5 0 5 C0 3.35 0 1.7 0 0 Z " fill="#1B84F8" transform="translate(544,282)"/>
<path d="M0 0 C2.31 0 4.62 0 7 0 C7 1.65 7 3.3 7 5 C4.69 5 2.38 5 0 5 C0 3.35 0 1.7 0 0 Z " fill="#1B84F8" transform="translate(536,282)"/>
<path d="M0 0 C2.31 0 4.62 0 7 0 C7 1.65 7 3.3 7 5 C4.69 5 2.38 5 0 5 C0 3.35 0 1.7 0 0 Z " fill="#1B84F8" transform="translate(619,238)"/>
<path d="M0 0 C2.31 0 4.62 0 7 0 C7 1.65 7 3.3 7 5 C4.69 5 2.38 5 0 5 C0 3.35 0 1.7 0 0 Z " fill="#1B84F8" transform="translate(611,238)"/>
<path d="M0 0 C2.31 0 4.62 0 7 0 C7 1.65 7 3.3 7 5 C4.69 5 2.38 5 0 5 C0 3.35 0 1.7 0 0 Z " fill="#1B84F8" transform="translate(368,238)"/>
<path d="M0 0 C2.31 0 4.62 0 7 0 C7 1.65 7 3.3 7 5 C4.69 5 2.38 5 0 5 C0 3.35 0 1.7 0 0 Z " fill="#1B84F8" transform="translate(360,238)"/>
</svg>
