<?xml version="1.0" standalone="no"?>
<!DOCTYPE svg PUBLIC "-//W3C//DTD SVG 20010904//EN"
 "http://www.w3.org/TR/2001/REC-SVG-20010904/DTD/svg10.dtd">
<svg version="1.0" xmlns="http://www.w3.org/2000/svg"
 width="820.000000pt" height="312.000000pt" viewBox="0 0 820.000000 312.000000"
 preserveAspectRatio="xMidYMid meet">

<g transform="translate(0.000000,312.000000) scale(0.100000,-0.100000)"
fill="#000000" stroke="none">
<path d="M1005 2591 c-445 -169 -758 -292 -753 -296 4 -5 692 -261 868 -324
l145 -52 470 171 c259 95 477 176 485 180 19 11 14 13 -340 146 -166 63 -289
104 -311 104 -34 0 -39 -4 -60 -47 -20 -40 -31 -50 -67 -62 -61 -19 -110 0
-136 52 -16 34 -17 42 -4 75 9 25 26 44 50 57 33 17 42 18 82 7 36 -9 56 -9
91 0 55 15 79 7 440 -130 310 -117 332 -128 350 -163 22 -41 21 -279 0 -279
-8 0 -29 -13 -46 -28 -26 -23 -33 -38 -36 -79 -5 -47 -3 -53 30 -89 32 -36 40
-39 87 -39 47 0 55 3 87 39 33 36 35 42 30 89 -3 41 -10 56 -36 79 -17 15 -38
28 -46 28 -12 0 -15 20 -15 116 l0 115 62 28 61 28 -54 21 c-30 11 -171 66
-314 122 -217 85 -661 255 -715 274 -8 3 -190 -62 -405 -143z"/>
<path d="M2090 2164 c-74 -29 -140 -53 -146 -54 -6 0 -18 -7 -25 -16 -12 -15
-11 -16 11 -9 38 11 251 91 283 106 24 11 38 30 20 28 -5 0 -69 -25 -143 -55z"/>
<path d="M1750 1980 c-107 -38 -259 -93 -338 -121 l-143 -52 -215 78 c-118 43
-217 75 -220 72 -11 -11 -8 -105 4 -120 19 -23 124 -66 230 -94 90 -25 112
-27 317 -27 215 0 223 0 335 31 64 17 139 40 167 53 48 21 92 55 82 65 -3 2
-45 -11 -94 -30 -102 -39 -123 -42 -132 -19 -7 20 14 38 71 59 23 8 67 24 99
36 33 12 57 26 57 35 0 20 -9 18 -130 -27 -110 -41 -144 -44 -138 -12 2 13 43
34 133 70 71 29 131 57 133 63 6 17 -17 11 -218 -60z"/>
<path d="M663 1967 c-125 -136 -211 -336 -232 -539 -46 -457 246 -883 693
-1012 179 -52 344 -54 531 -6 87 23 285 114 285 131 0 6 -12 28 -27 49 l-28
38 -71 -39 c-347 -191 -772 -127 -1045 158 -173 179 -247 378 -236 632 7 181
50 313 143 443 26 37 35 61 40 111 4 40 3 67 -4 71 -5 3 -27 -13 -49 -37z"/>
<path d="M5097 2000 c-20 -4 -49 -17 -62 -30 -67 -63 -52 -225 25 -265 35 -18
126 -19 160 -2 42 21 70 74 70 131 -1 122 -76 187 -193 166z m91 -97 c26 -28
29 -69 6 -101 -21 -31 -85 -31 -114 0 -35 38 -23 116 20 131 26 9 64 -4 88
-30z"/>
<path d="M4660 1979 c-65 -12 -93 -48 -86 -108 14 -121 16 -292 5 -571 -16
-427 -17 -395 5 -419 43 -47 156 -46 204 2 l25 25 -13 239 c-14 253 -9 610 10
698 6 28 8 63 4 78 -10 49 -73 72 -154 56z"/>
<path d="M2612 1889 c-81 -17 -121 -107 -92 -211 14 -47 50 -61 142 -52 62 6
68 5 92 -19 44 -44 38 -96 -54 -512 -23 -104 -25 -150 -7 -185 32 -63 209 -67
266 -6 33 35 39 129 15 232 -13 56 -18 116 -17 204 1 139 12 196 47 237 21 25
33 28 105 33 89 7 113 21 137 77 8 18 14 55 14 82 0 43 -4 53 -31 75 -35 30
-31 29 -244 27 -90 -1 -200 4 -250 12 -50 7 -105 10 -123 6z"/>
<path d="M4015 1882 c-66 -23 -113 -57 -121 -88 -11 -41 6 -94 41 -132 l33
-37 40 23 c78 44 122 24 122 -53 0 -50 -49 -99 -114 -116 -57 -14 -76 -39 -76
-102 0 -38 5 -53 25 -72 13 -14 30 -25 38 -25 31 0 119 -32 138 -51 27 -27 25
-75 -5 -94 -30 -20 -66 -12 -97 21 -58 62 -149 -5 -149 -111 0 -107 86 -177
220 -178 83 -2 133 16 187 66 51 47 73 108 73 208 0 130 -53 226 -137 248 -59
16 -61 28 -11 50 125 53 163 188 92 328 -60 117 -170 160 -299 115z"/>
<path d="M2045 1800 c-3 -5 4 -28 16 -51 68 -134 106 -316 94 -449 -20 -221
-109 -396 -286 -565 -79 -75 -87 -85 -51 -65 154 87 280 255 344 460 20 65 23
96 23 225 0 168 -16 243 -80 381 -32 71 -46 86 -60 64z"/>
<path d="M691 1719 c-66 -142 -85 -225 -84 -369 0 -147 21 -238 82 -364 65
-133 175 -251 293 -314 l43 -23 -30 23 c-62 46 -159 145 -200 203 -98 138
-144 268 -152 431 -7 136 12 238 69 377 29 71 37 102 29 110 -8 8 -21 -13 -50
-74z"/>
<path d="M1844 1677 l-91 -30 18 -86 c10 -47 18 -104 19 -126 1 -86 -1 -85
121 -85 l109 0 0 53 c0 64 -31 190 -62 257 l-23 48 -91 -31z"/>
<path d="M842 1663 c-31 -60 -59 -161 -67 -240 l-7 -73 121 0 121 0 0 41 c0
22 9 85 21 140 11 56 19 102 17 104 -2 2 -37 14 -78 28 -41 14 -83 28 -92 32
-12 5 -22 -3 -36 -32z"/>
<path d="M3333 1655 c-39 -16 -63 -60 -63 -113 0 -79 61 -108 139 -67 44 22
95 17 99 -11 3 -21 -11 -31 -94 -63 -43 -17 -89 -67 -116 -126 -18 -40 -22
-68 -22 -145 -1 -90 1 -100 34 -165 49 -97 73 -108 209 -101 155 9 174 24 190
153 10 84 -5 345 -25 433 -26 115 -83 186 -169 209 -55 15 -143 13 -182 -4z
m223 -430 c22 -52 18 -131 -7 -156 -27 -27 -70 -22 -86 11 -17 34 -16 115 2
150 12 23 22 30 46 30 25 0 33 -6 45 -35z"/>
<path d="M1147 1552 c-9 -37 -19 -97 -22 -134 l-7 -68 116 0 116 0 0 125 0
124 -32 5 c-18 3 -61 7 -95 10 l-62 6 -14 -68z"/>
<path d="M1545 1613 c-91 -8 -85 2 -85 -138 l0 -125 111 0 112 0 -6 83 c-4 45
-13 105 -20 132 -14 55 -19 57 -112 48z"/>
<path d="M5084 1518 c-39 -18 -43 -46 -33 -189 6 -74 8 -199 4 -279 -6 -141
-6 -146 15 -165 18 -16 37 -20 91 -20 107 0 116 17 84 165 -15 71 -17 115 -12
274 5 175 4 189 -14 207 -21 21 -98 25 -135 7z"/>
<path d="M5681 1515 c-40 -18 -77 -19 -87 -4 -8 14 -91 6 -107 -10 -8 -8 -12
-82 -13 -244 0 -128 -4 -260 -9 -293 -7 -55 -5 -64 14 -83 28 -28 98 -29 134
-1 l25 20 -5 142 c-6 165 5 243 44 288 45 54 105 28 118 -52 4 -22 4 -117 0
-211 -8 -198 -4 -212 60 -210 46 1 86 30 97 69 5 16 6 99 3 184 -5 137 -4 159
12 190 24 47 55 51 93 10 39 -42 45 -92 31 -261 -11 -125 -11 -143 4 -165 22
-33 96 -36 128 -5 28 27 44 247 29 383 -14 133 -26 172 -66 216 -30 32 -39 36
-95 40 -41 3 -85 -1 -126 -13 -62 -16 -65 -16 -125 4 -70 24 -112 26 -159 6z"/>
<path d="M6516 1520 c-38 -12 -66 -39 -66 -65 0 -27 43 -95 109 -169 78 -90
79 -116 8 -189 -86 -88 -119 -134 -115 -163 5 -42 56 -67 137 -68 l66 -1 22
70 c35 109 42 121 57 104 7 -8 22 -45 31 -83 22 -82 35 -96 85 -96 102 0 178
36 163 79 -8 20 -61 87 -130 162 -83 89 -76 118 61 265 36 40 66 81 66 92 0
27 -55 51 -133 59 -76 7 -84 0 -109 -99 -19 -75 -32 -98 -55 -98 -19 0 -50 73
-59 138 -4 35 -13 56 -25 62 -21 12 -73 12 -113 0z"/>
<path d="M780 1232 c0 -36 32 -128 71 -202 63 -121 178 -237 313 -315 l48 -28
-32 54 c-80 135 -129 269 -155 417 -8 47 -15 86 -15 88 0 2 -52 4 -115 4 -105
0 -115 -2 -115 -18z"/>
<path d="M1126 1213 c24 -169 113 -391 203 -503 l21 -25 0 283 0 282 -114 0
-115 0 5 -37z"/>
<path d="M1460 973 l0 -278 40 55 c72 101 135 248 165 393 25 115 32 107 -95
107 l-110 0 0 -277z"/>
<path d="M1787 1193 c-13 -128 -78 -306 -155 -427 -24 -37 -42 -70 -40 -72 3
-2 33 13 68 34 92 54 208 171 264 267 39 67 96 213 96 246 0 5 -49 9 -114 9
l-113 0 -6 -57z"/>
<path d="M3280 580 l0 -220 25 0 25 0 0 220 0 220 -25 0 -25 0 0 -220z"/>
<path d="M4422 715 c-48 -56 -72 -93 -72 -110 0 -24 2 -25 74 -25 66 0 77 -3
90 -22 19 -27 21 -119 4 -136 -17 -17 -259 -17 -276 0 -8 8 -12 47 -12 110 0
98 0 98 -25 98 l-25 0 0 -110 0 -110 -43 0 c-24 0 -48 5 -55 12 -7 7 -12 40
-12 80 0 61 -2 68 -20 68 -18 0 -20 -7 -20 -57 0 -94 -5 -103 -56 -103 -54 0
-64 16 -64 99 0 54 -2 61 -20 61 -18 0 -20 -7 -20 -64 0 -95 -1 -96 -79 -96
-39 0 -72 5 -79 12 -8 8 -12 47 -12 110 0 98 0 98 -25 98 l-25 0 0 -110 0
-110 -57 0 c-85 0 -87 3 -91 120 -4 90 -6 100 -23 100 -18 0 -19 -9 -19 -156
0 -88 -4 -164 -10 -175 -7 -12 -21 -19 -40 -19 -26 0 -30 -4 -30 -26 0 -25 2
-26 36 -21 58 10 84 41 84 100 0 43 2 48 18 41 35 -16 121 -16 153 0 28 14 34
14 52 1 28 -19 123 -19 160 0 26 13 31 13 50 0 27 -19 74 -19 110 0 26 13 31
13 50 0 27 -19 74 -19 110 0 25 13 31 13 52 -1 19 -13 49 -15 154 -12 162 4
164 5 169 117 4 75 3 80 -25 111 -25 28 -38 34 -86 38 l-57 4 55 63 c58 66 63
76 42 94 -11 8 -29 -8 -85 -74z"/>
<path d="M4670 580 l0 -220 25 0 25 0 0 220 0 220 -25 0 -25 0 0 -220z"/>
<path d="M5610 621 c0 -99 -3 -186 -6 -195 -8 -20 -113 -23 -132 -4 -8 8 -12
47 -12 110 0 98 0 98 -25 98 l-25 0 0 -110 0 -110 -64 0 c-36 0 -68 5 -72 11
-3 6 -8 40 -10 77 -5 77 -22 108 -71 129 -48 19 -98 9 -135 -27 -24 -25 -28
-36 -28 -85 0 -49 -4 -60 -26 -78 -65 -54 -64 -53 -64 -132 0 -73 1 -75 25
-75 24 0 25 2 25 69 0 64 2 71 27 89 27 20 27 20 56 -2 36 -26 117 -28 145 -3
17 15 19 15 35 0 24 -25 135 -30 177 -9 29 14 35 14 53 1 27 -19 104 -19 140
0 25 13 31 13 53 -1 20 -14 40 -15 112 -10 101 8 91 8 247 0 111 -5 122 -4
145 14 24 19 25 27 28 136 l4 116 -26 0 -25 0 -3 -107 -3 -108 -100 -3 -99 -3
26 28 c55 57 62 120 20 163 -39 38 -101 47 -176 26 -54 -16 -56 -18 -56 -50 0
-25 7 -38 25 -50 30 -20 65 -73 65 -98 0 -16 -11 -18 -89 -18 -68 0 -93 4
-105 16 -13 13 -16 45 -16 195 0 172 -1 179 -20 179 -19 0 -20 -7 -20 -179z
m-416 -47 c33 -33 33 -127 -1 -151 -24 -18 -78 -16 -97 3 -33 32 -32 116 0
149 20 20 78 19 98 -1z m768 -1 c10 -9 18 -25 18 -35 0 -28 -27 -76 -50 -88
-17 -9 -22 -5 -41 36 -12 25 -35 55 -51 67 -26 19 -27 22 -11 29 35 13 116 9
135 -9z"/>
<path d="M3610 715 c0 -20 5 -25 25 -25 20 0 25 5 25 25 0 20 -5 25 -25 25
-20 0 -25 -5 -25 -25z"/>
<path d="M3690 715 c0 -20 5 -25 25 -25 20 0 25 5 25 25 0 20 -5 25 -25 25
-20 0 -25 -5 -25 -25z"/>
<path d="M6120 715 c0 -20 5 -25 25 -25 20 0 25 5 25 25 0 20 -5 25 -25 25
-20 0 -25 -5 -25 -25z"/>
<path d="M6200 715 c0 -20 5 -25 25 -25 20 0 25 5 25 25 0 20 -5 25 -25 25
-20 0 -25 -5 -25 -25z"/>
<path d="M5370 275 c0 -20 5 -25 25 -25 20 0 25 5 25 25 0 20 -5 25 -25 25
-20 0 -25 -5 -25 -25z"/>
<path d="M5450 275 c0 -20 5 -25 25 -25 20 0 25 5 25 25 0 20 -5 25 -25 25
-20 0 -25 -5 -25 -25z"/>
</g>
</svg>
