<?xml version="1.0" encoding="UTF-8"?>
<svg version="1.1" xmlns="http://www.w3.org/2000/svg" width="512" height="512">
<path d="M0 0 C1.60876511 0.61857628 1.60876511 0.61857628 3.25003052 1.24964905 C6.76946573 2.60671687 10.28112854 3.98278543 13.79296875 5.359375 C16.23273755 6.30470582 18.67292881 7.24894702 21.11352539 8.19213867 C28.10414604 10.89724999 35.08510112 13.62678878 42.06486511 16.3597641 C45.22769792 17.59743869 48.39171538 18.83207599 51.55566406 20.06689453 C66.04092356 25.72154485 80.51602123 31.40170144 94.98046875 37.109375 C93.98046875 40.109375 93.98046875 40.109375 91.984375 41.27734375 C91.17871094 41.61378906 90.37304688 41.95023438 89.54296875 42.296875 C88.73988281 42.64105469 87.93679688 42.98523438 87.109375 43.33984375 C84.98046875 44.109375 84.98046875 44.109375 82.98046875 44.109375 C82.98046875 51.369375 82.98046875 58.629375 82.98046875 66.109375 C85.95046875 67.099375 85.95046875 67.099375 88.98046875 68.109375 C92.06995222 71.44276506 93.25457724 74.14425288 93.48046875 78.609375 C93.2545033 83.08349096 92.03102401 85.73770866 88.98046875 89.109375 C84.63606199 92.24138918 81.22173399 92.4811282 76.09765625 91.6875 C72.26612772 90.64125236 69.88097285 88.6271858 67.875 85.24609375 C66.33480524 81.56711324 66.43808101 78.0213466 66.98046875 74.109375 C68.89266786 70.06433842 69.90528101 68.50556701 74.12890625 66.94921875 C75.06992187 66.67207031 76.0109375 66.39492187 76.98046875 66.109375 C76.95763121 62.04563693 76.88026911 57.98469924 76.79296875 53.921875 C76.78716797 52.77138672 76.78136719 51.62089844 76.77539062 50.43554688 C76.74638672 49.32373047 76.71738281 48.21191406 76.6875 47.06640625 C76.66393433 45.53463745 76.66393433 45.53463745 76.63989258 43.97192383 C75.73391715 40.03909827 74.10035431 38.62103938 70.98046875 36.109375 C67.84199501 34.44671475 67.84199501 34.44671475 64.328125 33.1640625 C63.68339737 32.91212128 63.03866974 32.66018005 62.37440491 32.40060425 C60.26876071 31.58198233 58.15630805 30.78289711 56.04296875 29.984375 C54.57566736 29.41918071 53.1087117 28.85308809 51.64208984 28.28613281 C23.30122935 15.35691773 23.30122935 15.35691773 -6.33203125 11.671875 C-10.01953125 12.109375 -10.01953125 12.109375 -12.01953125 11.109375 C-15.73241589 10.69683226 -17.56574629 10.84718814 -20.83203125 12.734375 C-23.50951081 15.6413528 -24.01953125 17.17378109 -24.01953125 21.109375 C-22.79751412 23.93930941 -21.68839839 25.58383653 -19.26953125 27.484375 C-15.1519565 28.62814576 -11.46253322 27.85037601 -7.70703125 25.921875 C-5.50631577 23.55814356 -4.95024065 21.16742017 -4.01953125 18.109375 C0.59796786 15.80062545 5.53554426 16.68766386 10.29638672 18.07714844 C14.20179226 19.47458647 18.06132286 20.95900095 21.91796875 22.484375 C23.33060363 23.0305133 24.74377881 23.57525599 26.1574707 24.11865234 C29.03329592 25.22669431 31.90568849 26.34299373 34.77539062 27.46679688 C38.73765726 29.01756568 42.70872275 30.54437437 46.68359375 32.0625 C62.76777199 38.21204269 62.76777199 38.21204269 69.98046875 41.109375 C69.98046875 41.769375 69.98046875 42.429375 69.98046875 43.109375 C59.59758277 47.73529002 49.07069968 51.70517681 38.35546875 55.484375 C34.92226758 56.69796699 31.48999758 57.91414772 28.05859375 59.1328125 C27.17031891 59.44804871 26.28204407 59.76328491 25.36685181 60.08807373 C18.53398357 62.52544286 11.74676851 65.07322792 4.96484375 67.6484375 C1.98315424 68.77018133 -0.99931721 69.88981728 -3.9821167 71.00860596 C-5.91173751 71.73792069 -7.83828594 72.47542074 -9.76153564 73.22137451 C-12.46237068 74.26792085 -15.17275529 75.28495607 -17.88671875 76.296875 C-18.67894836 76.61274567 -19.47117798 76.92861633 -20.28741455 77.25405884 C-26.14015625 79.38993599 -30.14477898 79.0260707 -36.01953125 77.109375 C-37.24486572 76.72031982 -38.4702002 76.33126465 -39.73266602 75.93041992 C-40.96299561 75.48802979 -42.1933252 75.04563965 -43.4609375 74.58984375 C-44.16249969 74.33871323 -44.86406189 74.0875827 -45.58688354 73.82884216 C-47.920813 72.99086041 -50.25148706 72.14422218 -52.58203125 71.296875 C-54.24550223 70.69639126 -55.90899573 70.09596993 -57.57250977 69.49560547 C-82.13964447 60.59968792 -106.57355457 51.33178679 -131.01953125 42.109375 C-131.01953125 41.119375 -131.01953125 40.129375 -131.01953125 39.109375 C-106.94073983 29.52619101 -82.79820896 20.12757015 -58.55462646 10.96890259 C-53.6397027 9.10990738 -48.73363187 7.22995471 -43.83572388 5.32658386 C-40.88092149 4.17964548 -37.92234086 3.04267945 -34.96307373 1.90731812 C-33.60485094 1.3833818 -32.24837282 0.85489554 -30.89385986 0.32144165 C-29.04206297 -0.40726903 -27.18326274 -1.11810639 -25.32421875 -1.828125 C-24.29280762 -2.22902344 -23.26139648 -2.62992188 -22.19873047 -3.04296875 C-13.81409956 -5.27852692 -7.81594398 -3.09439658 0 0 Z " fill="#1B84F8" transform="translate(274.01953125,51.890625)"/>
<path d="M0 0 C3.29938103 0.2869027 5.57391112 0.1585447 8.6875 -1 C14.30606783 -2.69617142 20.35593758 -3.03463312 25.875 -0.875 C32.95885478 5.3754601 35.61163861 11.4202843 36.27050781 20.88647461 C36.38108082 24.55717393 36.37680049 28.22437516 36.33618164 31.89624023 C36.31243747 34.19355038 36.31565897 36.4897062 36.32226562 38.78710938 C36.31669157 40.26823599 36.30958341 41.7493578 36.30078125 43.23046875 C36.30169266 43.9066777 36.30260406 44.58288666 36.30354309 45.27958679 C36.22709672 50.47571922 35.81195684 55.83958992 32.375 59.9375 C28.8741381 61.50367506 25.77016936 61.53417184 22 61 C19.5625 60.0625 19.5625 60.0625 18 58 C16.65434088 52.84164002 17.03954964 47.94069875 17.73046875 42.7265625 C18.08996265 39.08994303 18.19721671 35.46369029 18.25 31.8125 C18.27118896 31.13501709 18.29237793 30.45753418 18.31420898 29.75952148 C18.3467663 25.10382541 17.52202175 21.91718272 15 18 C12.41585574 17.03093173 12.41585574 17.03093173 10 17 C8.86095956 20.60270156 8.93060501 23.91171666 9.0078125 27.671875 C9.02457031 28.97640625 9.04132813 30.2809375 9.05859375 31.625 C9.08940781 33.68318366 9.12479483 35.74093797 9.17138672 37.79882812 C9.47929665 52.17718413 9.47929665 52.17718413 6 59 C3.4819361 61.15834049 1.7874168 61.01864765 -1.5625 61.3125 C-5 61 -5 61 -6.875 59.6875 C-9.49552616 55.75671077 -9.11336515 51.71226254 -9.0625 47.19140625 C-9.05871338 46.42827621 -9.05492676 45.66514618 -9.05102539 44.87889099 C-9.03468442 41.61605283 -9.00656104 38.35334013 -8.97949219 35.09057617 C-8.9614009 32.70752543 -8.94930999 30.32449507 -8.9375 27.94140625 C-8.92920166 27.20588028 -8.92090332 26.47035431 -8.91235352 25.71253967 C-8.89616999 22.32838276 -8.93310801 19.23375383 -10 16 C-12.31 16.33 -14.62 16.66 -17 17 C-22.17565012 27.80135676 -21.40729403 40.39993187 -19.9609375 52.01171875 C-20.00768282 55.58773558 -20.80028911 57.2126951 -23 60 C-26.70631721 61.23543907 -30.14726975 61.55926729 -34 61 C-36.73380763 59.10736395 -37.75144965 57.9101229 -38.62573242 54.70874023 C-39.03181301 51.76975513 -38.86962676 49.2957062 -38.55078125 46.34765625 C-38.06640497 40.8665562 -37.95418992 35.48986481 -38.04296875 29.99609375 C-38.05329132 29.21763092 -38.06361389 28.43916809 -38.07424927 27.63711548 C-38.11915144 24.4138667 -38.16939083 21.19115468 -38.24682617 17.96850586 C-38.30118349 15.5817686 -38.3303264 13.19579326 -38.35546875 10.80859375 C-38.37925095 10.08256454 -38.40303314 9.35653534 -38.42753601 8.60850525 C-38.44560905 5.13458897 -38.27407037 3.35039108 -36.1027832 0.57446289 C-32.56925958 -2.07126959 -30.40663123 -2.26439787 -26 -2 C-25.04287109 -1.45472656 -25.04287109 -1.45472656 -24.06640625 -0.8984375 C-22.04360743 0.22832779 -22.04360743 0.22832779 -19.95703125 -0.49609375 C-19.24933594 -0.80675781 -18.54164063 -1.11742187 -17.8125 -1.4375 C-11.33134753 -3.85456346 -6.06925333 -3.05316817 0 0 Z " fill="#1B84F8" transform="translate(357,347)"/>
<path d="M0 0 C9.22566031 1.06524915 18.32147642 1.10980334 27.59765625 0.75 C33.72394987 0.60880501 37.42080794 0.72710841 42 5 C43.74376309 10.23128926 43.77540854 15.7014021 41.75 20.875 C39.39592342 25.07870819 37.51002709 26.49665764 33 28 C31.18877863 28.12443506 29.37594706 28.22637972 27.5625 28.3125 C24.28251749 28.61540076 22.32676978 28.81669013 19.4375 30.4375 C12.93684288 42.0256279 15.35285402 58.47968092 18.3203125 70.7734375 C19.60662935 76.8797462 19.85969671 82.51140427 17.8125 88.4375 C15.23130487 92.08677588 13.22267259 94.51697438 8.69921875 95.5 C2.39045526 96.265859 -3.46654236 96.76240531 -8.875 93 C-11.99202429 88.59949512 -12.30614728 84.08749577 -11.77740479 78.75512695 C-11.37974494 76.45257171 -10.90094863 74.18466939 -10.3828125 71.90625 C-10.11789505 70.65890076 -10.11789505 70.65890076 -9.84762573 69.38635254 C-9.28644457 66.75455957 -8.70675218 64.12731471 -8.125 61.5 C-7.55375723 58.87208976 -6.98657637 56.24338325 -6.42379761 53.61364746 C-6.07440907 51.98620287 -5.71973954 50.35987897 -5.3586731 48.73498535 C-3.77526342 41.45307789 -2.29796147 34.3755003 -4 27 C-4.83978394 26.97812622 -4.83978394 26.97812622 -5.6965332 26.95581055 C-8.23588137 26.88128648 -10.77392078 26.78464419 -13.3125 26.6875 C-14.63411133 26.65366211 -14.63411133 26.65366211 -15.98242188 26.61914062 C-16.82998047 26.58369141 -17.67753906 26.54824219 -18.55078125 26.51171875 C-19.72120972 26.47244263 -19.72120972 26.47244263 -20.9152832 26.43237305 C-23.48961793 25.89845259 -24.38979207 25.04282894 -26 23 C-27.93333234 16.848488 -27.77746483 9.81945012 -25 4 C-17.44726334 -2.98628141 -9.56505215 -1.1707071 0 0 Z " fill="#1B84F8" transform="translate(78,312)"/>
<path d="M0 0 C2.43507111 4.87014221 0.95371835 11.78133892 0 17 C-1.4364659 19.52395985 -3.0689455 21.37613994 -5.0234375 23.515625 C-17.37900119 39.045543 -18.43868364 61.10181629 -17 80 C-16.2656563 85.53734841 -14.81177465 90.71367067 -13 96 C-12.649375 97.05058594 -12.29875 98.10117188 -11.9375 99.18359375 C-3.99083684 120.4022881 13.03953543 135.9052764 33.16796875 145.42578125 C55.11957028 154.76969526 78.0699697 154.46441108 100.25 146.125 C105.96011461 143.68894428 111.48418766 140.84320224 117 138 C118.03613033 139.23734984 119.05347802 140.49044637 120.0625 141.75 C120.63097656 142.44609375 121.19945312 143.1421875 121.78515625 143.859375 C123 146 123 146 122.9375 148.0859375 C119.49256249 155.11935158 107.15241109 158.24462425 100.09765625 160.67578125 C78.97432766 167.61216593 54.91888052 167.74433383 34 160 C33.29456055 159.74299316 32.58912109 159.48598633 31.86230469 159.22119141 C7.32970558 150.01722919 -10.97568254 131.80326515 -22.375 108.4375 C-31.90076174 86.5795198 -33.53779732 60.7073209 -26 38 C-25.79101074 37.3620752 -25.58202148 36.72415039 -25.36669922 36.06689453 C-22.15577383 26.52070512 -11.49955424 0 0 0 Z " fill="#1B84F8" transform="translate(191,120)"/>
<path d="M0 0 C7.56567482 6.14711079 10.9898228 12.01706256 12.31640625 21.76171875 C12.62967659 27.55216724 11.39114915 32.68455079 8 37.4375 C5.17899712 39.79723735 2.22574604 41.67988197 -1 43.4375 C0.216875 43.9325 1.43375 44.4275 2.6875 44.9375 C8.51556833 47.84637658 10.82831403 52.4051437 13.109375 58.30859375 C15.74028648 67.55140119 14.35562806 76.96981519 10 85.4375 C6.40714117 90.26219614 1.74110993 92.85869477 -4 94.4375 C-13.41208847 95.59071381 -20.81728598 94.29131299 -28.4375 88.625 C-32.05624402 83.55875837 -32.34283769 78.47494973 -31.48046875 72.51953125 C-30.4590518 68.09339114 -28.72606699 65.92154466 -25 63.4375 C-22 63.125 -22 63.125 -19 63.4375 C-17.97895449 64.41600195 -16.9793879 65.41730427 -16 66.4375 C-12.94091587 67.25334568 -12.94091587 67.25334568 -10 67.4375 C-8.70366379 66.37104885 -8.70366379 66.37104885 -8.9375 63.875 C-8.958125 63.070625 -8.97875 62.26625 -9 61.4375 C-12.67602743 59.40601116 -16.14347968 58.09866919 -20.1875 57.0625 C-23.40441114 56.11919523 -24.7519078 55.69288903 -27.125 53.25 C-28.28072376 49.53517364 -28.76951955 46.24774245 -28 42.4375 C-25.35273945 37.91153841 -23.34196143 36.3219258 -18.375 34.75 C-17.61960938 34.56050781 -16.86421875 34.37101562 -16.0859375 34.17578125 C-13.63117635 33.30696129 -12.52700218 32.54736422 -11 30.4375 C-10.63853543 28.15419899 -10.63853543 28.15419899 -10.8125 25.75 C-10.83957031 24.94175781 -10.86664063 24.13351562 -10.89453125 23.30078125 C-10.94673828 22.37845703 -10.94673828 22.37845703 -11 21.4375 C-16.01535052 21.76710216 -16.01535052 21.76710216 -20 24.4375 C-23.54804256 24.90028816 -25.31183857 24.93450548 -28.25 22.8125 C-31.52217191 18.37169527 -32.58159482 13.90449129 -32 8.4375 C-29.45231025 3.19513839 -26.48209311 1.58793682 -21.24609375 -0.609375 C-14.55928267 -2.57277079 -6.40071038 -3.25699865 0 0 Z " fill="#1B84F8" transform="translate(208,312.5625)"/>
<path d="M0 0 C6.02582491 5.31157855 9.80327774 10.61564358 11.0625 18.5625 C11.21847656 19.51253906 11.37445313 20.46257812 11.53515625 21.44140625 C12.7152669 30.47569872 13.22903737 39.45394456 13.3125 48.5625 C13.34150391 49.62146484 13.37050781 50.68042969 13.40039062 51.77148438 C13.45655789 58.78375115 12.62868538 64.87040012 9 71 C6.3125 72.5625 6.3125 72.5625 3 73 C1.97519531 73.15662109 1.97519531 73.15662109 0.9296875 73.31640625 C-1.38034444 73.63433748 -3.67427161 73.8347003 -6 74 C-6.76957031 74.06574219 -7.53914063 74.13148438 -8.33203125 74.19921875 C-12.83993605 74.42192614 -16.43960151 74.07644029 -20.36328125 71.54296875 C-24.65067725 67.50115152 -28.63911765 60.99160769 -29.17700195 55.04223633 C-29.24382159 52.63220391 -29.2849164 50.22330664 -29.3125 47.8125 C-29.34150391 46.98685547 -29.37050781 46.16121094 -29.40039062 45.31054688 C-29.48563449 36.98943417 -26.3419839 30.71796898 -20.859375 24.54296875 C-17.39801654 21.67062297 -13.24116801 20.34946255 -9 19 C-9 18.34 -9 17.68 -9 17 C-12.12290635 17.48578543 -14.99580359 17.9986012 -18 19 C-19.9375 19.203125 -19.9375 19.203125 -22 19.25 C-22.680625 19.27578125 -23.36125 19.3015625 -24.0625 19.328125 C-26 19 -26 19 -27.71875 17.8515625 C-30.46132707 13.88820417 -29.66175683 8.57663599 -29 4 C-22.42611305 -5.39126707 -9.45622887 -4.857132 0 0 Z M-7 36 C-9.21589478 37.73417852 -9.97165433 38.90842168 -10.8125 41.625 C-11.05586967 46.0056541 -10.1322172 49.78927487 -9 54 C-6.05272465 53.89830839 -6.05272465 53.89830839 -3 53 C-1.03717505 50.46468444 -0.94755935 48.66704512 -1.1953125 45.515625 C-1.80013174 41.67680863 -1.80013174 41.67680863 -3 38 C-4.9892848 36.66009086 -4.9892848 36.66009086 -7 36 Z " fill="#1B84F8" transform="translate(149,334)"/>
<path d="M0 0 C3.1875 1.8125 3.1875 1.8125 5 5 C5.63656945 9.90848729 5.20335911 14.60644366 4.49121094 19.48657227 C3.83275356 24.73061638 3.85659245 29.9480668 3.8671875 35.2265625 C3.86623077 36.29184174 3.86527405 37.35712097 3.86428833 38.4546814 C3.86361035 40.70204732 3.86543787 42.94941523 3.86962891 45.19677734 C3.8749506 48.59347061 3.86968731 51.99002973 3.86328125 55.38671875 C3.85996893 66.31194172 4.0088476 77.11467838 5 88 C5.13127596 89.99959787 5.25720385 91.99956278 5.375 94 C5.44847656 95.2375 5.44847656 95.2375 5.5234375 96.5 C4.74771921 100.20492317 2.98102146 102.75470842 0 105 C-3.01770924 105.59741452 -5.07973458 105.80506087 -8.0625 105.6875 C-8.76955078 105.70232422 -9.47660156 105.71714844 -10.20507812 105.73242188 C-13.83961146 105.67440585 -15.69445508 105.26120717 -18.4765625 102.8828125 C-20.33685308 99.36257033 -20.43721381 97.15683969 -20.3125 93.1875 C-20.28800781 92.02605469 -20.26351562 90.86460937 -20.23828125 89.66796875 C-20.12432478 87.0375747 -19.95644397 84.41850048 -19.75976562 81.79272461 C-18.9318511 70.345615 -18.84722302 58.93655881 -18.86962891 47.4621582 C-18.87501903 44.17589772 -18.86963623 40.88977215 -18.86328125 37.60351562 C-18.86394167 35.47916637 -18.86522209 33.3548172 -18.8671875 31.23046875 C-18.86516327 30.26562057 -18.86313904 29.3007724 -18.86105347 28.3066864 C-18.8803205 22.63113061 -19.23113231 17.12848185 -19.98123169 11.49971008 C-20.00352004 8.53117377 -19.32036048 6.64295754 -18 4 C-12.791368 -0.70457084 -6.71027982 -0.8130704 0 0 Z " fill="#1B84F8" transform="translate(257,303)"/>
<path d="M0 0 C2.58901362 3.88352042 3.20083809 7.67328199 4.21875 12.1875 C4.89097314 15.174211 4.89097314 15.174211 7 18 C7.31453125 16.95199219 7.6290625 15.90398437 7.953125 14.82421875 C8.38469063 13.4450851 8.81702263 12.06619109 9.25 10.6875 C9.45496094 9.99720703 9.65992188 9.30691406 9.87109375 8.59570312 C10.82017819 5.61902919 11.70313546 3.3208154 13.83984375 1.01171875 C18.56002514 -1.19899912 24.46727787 0.16881456 29.2734375 1.74609375 C30.87897608 2.4309051 32.4457589 3.2056101 34 4 C34.5 7.0625 34.5 7.0625 34 11 C32.25928686 12.89937189 30.33487498 14.38085936 28.31640625 15.98046875 C25.65659037 18.2993976 23.5849353 20.76363812 21.4375 23.5625 C20.75558594 24.45066406 20.07367188 25.33882813 19.37109375 26.25390625 C17.65272694 29.69553551 17.86551601 31.3686383 19 35 C20.35400519 36.18888261 21.72196885 37.36766633 23.171875 38.4375 C27.02384594 41.72978285 29.90548195 46.01183831 33 50 C33.33 50.33 33.66 50.66 34 51 C34.14115161 53.67058851 34.04247107 56.32432238 34 59 C28.58901769 61.70549116 23.12508324 63.45298043 17 63 C13.49137817 61.53893167 12.27554537 60.59809553 10.671875 57.1171875 C10.36765625 56.04726563 10.0634375 54.97734375 9.75 53.875 C8.91900502 50.14229973 8.91900502 50.14229973 7 47 C6.61908203 48.35544922 6.61908203 48.35544922 6.23046875 49.73828125 C5.88628906 50.91777344 5.54210937 52.09726562 5.1875 53.3125 C4.85105469 54.48425781 4.51460938 55.65601563 4.16796875 56.86328125 C3.08056968 59.78362057 2.52680884 61.24733603 0 63 C-6.4066024 63.65151889 -12.59840826 62.77052721 -17.7265625 58.59375 C-19 57 -19 57 -19.0625 53.8125 C-16.97527615 46.32304971 -11.94086331 41.6974268 -6 37 C-4.50501087 34.01002175 -4.88422554 31.29957225 -5 28 C-5.33 27.01 -5.66 26.02 -6 25 C-6.60585938 24.70867187 -7.21171875 24.41734375 -7.8359375 24.1171875 C-10.7019957 22.63759789 -11.83269735 20.78581935 -13.625 18.125 C-14.21539062 17.26132812 -14.80578125 16.39765625 -15.4140625 15.5078125 C-19.02013979 9.80559175 -19.02013979 9.80559175 -18.9375 6.5 C-17.66774824 3.1139953 -16.0259966 1.9256342 -13 0 C-8.57259636 -1.55557425 -4.51962414 -0.88910639 0 0 Z " fill="#1B84F8" transform="translate(427,345)"/>
<path d="M0 0 C0 1.65 0 3.3 0 5 C-4.12276549 6.67223282 -8.24856675 8.33684063 -12.375 10 C-13.550625 10.47695312 -14.72625 10.95390625 -15.9375 11.4453125 C-17.05898438 11.89648438 -18.18046875 12.34765625 -19.3359375 12.8125 C-20.37282715 13.23144531 -21.4097168 13.65039062 -22.47802734 14.08203125 C-25 15 -25 15 -27 15 C-26.505 15.99 -26.505 15.99 -26 17 C-22.65795843 16.3989558 -19.59792331 15.57790527 -16.42578125 14.37109375 C-15.59369141 14.05849609 -14.76160156 13.74589844 -13.90429688 13.42382812 C-13.04900391 13.09833984 -12.19371094 12.77285156 -11.3125 12.4375 C-9.60138279 11.78740268 -7.88919168 11.14012273 -6.17578125 10.49609375 C-5.42208252 10.20919678 -4.66838379 9.9222998 -3.8918457 9.62670898 C-2 9 -2 9 0 9 C0.3125 11.3125 0.3125 11.3125 0 14 C-4.58005165 17.3771198 -10.05130132 18.92760437 -15.38085938 20.75 C-19.92624864 22.34956151 -19.92624864 22.34956151 -23 26 C-21.13794922 25.36771484 -21.13794922 25.36771484 -19.23828125 24.72265625 C-17.59640822 24.16911049 -15.95447812 23.61573396 -14.3125 23.0625 C-13.08756836 22.64581055 -13.08756836 22.64581055 -11.83789062 22.22070312 C-7.9154656 20.90264127 -4.09869486 19.65946414 0 19 C-0.19140625 21.3125 -0.19140625 21.3125 -1 24 C-9.19665056 30.37347034 -21.05604835 32.72161024 -31 35 C-31.8053418 35.18908936 -32.61068359 35.37817871 -33.44042969 35.57299805 C-41.64222116 37.29512879 -49.78690036 37.35544775 -58.125 37.3125 C-59.2226619 37.30976578 -59.2226619 37.30976578 -60.34249878 37.30697632 C-71.16823407 37.26152425 -81.49034249 36.82650341 -92 34 C-92.69883301 33.81244141 -93.39766602 33.62488281 -94.11767578 33.43164062 C-101.55493846 31.39023341 -108.45419978 29.14677268 -115 25 C-116.50156874 21.99686252 -116.09281204 19.20932478 -116.0625 15.875 C-116.05347656 14.59367188 -116.04445312 13.31234375 -116.03515625 11.9921875 C-116.02355469 11.00476563 -116.01195312 10.01734375 -116 9 C-109.90794144 10.64607718 -104.03206753 12.70536267 -98.15625 14.98828125 C-96.73061181 15.53487848 -95.30482806 16.08109621 -93.87890625 16.62695312 C-91.68199351 17.46842328 -89.48922337 18.31680035 -87.30419922 19.1887207 C-75.38331417 23.98593731 -75.38331417 23.98593731 -63 22 C-61.99098633 21.65638428 -60.98197266 21.31276855 -59.94238281 20.95874023 C-56.39571443 19.71864459 -52.88667279 18.39834913 -49.375 17.0625 C-46.73505365 16.07277693 -44.09245949 15.09026195 -41.44921875 14.109375 C-40.4287722 13.73006584 -40.4287722 13.73006584 -39.38771057 13.34309387 C-31.36470413 10.37373056 -23.27988797 7.58597392 -15.1875 4.8125 C-14.47865662 4.56871613 -13.76981323 4.32493225 -13.03948975 4.07376099 C-1.18788942 0 -1.18788942 0 0 0 Z " fill="#1B84F8" transform="translate(317,115)"/>
<path d="M0 0 C0.4906219 3.12771462 0.70581845 5.89647475 0 9 C-2.38336593 11.28928569 -4.99388321 12.66469366 -8 14 C-7.25234375 14.03738281 -6.5046875 14.07476562 -5.734375 14.11328125 C-4.74953125 14.17902344 -3.7646875 14.24476563 -2.75 14.3125 C-1.77546875 14.37050781 -0.8009375 14.42851562 0.203125 14.48828125 C3.30737163 15.05623699 4.7443542 15.8219567 7 18 C8 21 8 21 8 34 C-18.73 34 -45.46 34 -73 34 C-73.33 36.31 -73.66 38.62 -74 41 C-77.08888522 43.05925681 -77.70935927 43.2390374 -81.1875 43.125 C-82.445625 43.08375 -83.70375 43.0425 -85 43 C-85 41.02 -85 39.04 -85 37 C-82.525 36.505 -82.525 36.505 -80 36 C-80 29.07 -80 22.14 -80 15 C-77.69 15 -75.38 15 -73 15 C-73 19.29 -73 23.58 -73 28 C-70.03 28 -67.06 28 -64 28 C-64 23.71 -64 19.42 -64 15 C-61.69 15 -59.38 15 -57 15 C-57 19.29 -57 23.58 -57 28 C-54.69 28 -52.38 28 -50 28 C-50 24.04 -50 20.08 -50 16 C-47.69 16 -45.38 16 -43 16 C-43 19.96 -43 23.92 -43 28 C-42.01 28 -41.02 28 -40 28 C-40 24.04 -40 20.08 -40 16 C-37.69 16 -35.38 16 -33 16 C-33 19.96 -33 23.92 -33 28 C-32.01 28 -31.02 28 -30 28 C-30 23.71 -30 19.42 -30 15 C-27.69 15 -25.38 15 -23 15 C-23 19.29 -23 23.58 -23 28 C-15.41 28 -7.82 28 0 28 C0 26.02 0 24.04 0 22 C-6.6 22 -13.2 22 -20 22 C-20 15 -20 15 -17.953125 12.39453125 C-14.6285383 9.69880156 -11.25535502 7.14197577 -7.75 4.6875 C-6.79480469 4.0059082 -6.79480469 4.0059082 -5.8203125 3.31054688 C-1.14074248 0 -1.14074248 0 0 0 Z " fill="#5094F7" transform="translate(241,416)"/>
<path d="M0 0 C2.64 0 5.28 0 8 0 C8 7.26 8 14.52 8 22 C9.32 22 10.64 22 12 22 C11.95359375 21.31292969 11.9071875 20.62585938 11.859375 19.91796875 C11.80523437 18.56638672 11.80523437 18.56638672 11.75 17.1875 C11.70359375 16.29417969 11.6571875 15.40085937 11.609375 14.48046875 C12 12 12 12 13.65625 10.1875 C16.55034095 8.72116059 18.52231421 8.69722551 21.75 8.8125 C22.73484375 8.83957031 23.7196875 8.86664063 24.734375 8.89453125 C25.48203125 8.92933594 26.2296875 8.96414063 27 9 C27 11.31 27 13.62 27 16 C24.36 16 21.72 16 19 16 C19 17.98 19 19.96 19 22 C24.28 22 29.56 22 35 22 C35 17.71 35 13.42 35 9 C37.31 9 39.62 9 42 9 C42 15.27 42 21.54 42 28 C14.94 28.33 -12.12 28.66 -40 29 C-40.33 31.64 -40.66 34.28 -41 37 C-43.31 37 -45.62 37 -48 37 C-48.05406122 35.06280622 -48.09282025 33.12518079 -48.125 31.1875 C-48.14820313 30.10855469 -48.17140625 29.02960938 -48.1953125 27.91796875 C-48 25 -48 25 -46 22 C-44.68 22 -43.36 22 -42 22 C-42.04640625 21.39671875 -42.0928125 20.7934375 -42.140625 20.171875 C-42.17671875 19.37265625 -42.2128125 18.5734375 -42.25 17.75 C-42.29640625 16.96109375 -42.3428125 16.1721875 -42.390625 15.359375 C-42 13 -42 13 -40.46875 10.71875 C-37.11049261 8.3807227 -34.17965737 8.55685994 -30.25 8.75 C-29.55261719 8.76804687 -28.85523438 8.78609375 -28.13671875 8.8046875 C-26.42388461 8.85161446 -24.71176176 8.92335395 -23 9 C-23 13.29 -23 17.58 -23 22 C-20.03 22 -17.06 22 -14 22 C-14 17.71 -14 13.42 -14 9 C-11.69 9 -9.38 9 -7 9 C-7 13.29 -7 17.58 -7 22 C-4.69 22 -2.38 22 0 22 C0 14.74 0 7.48 0 0 Z M-34 16 C-35.29633621 17.06645115 -35.29633621 17.06645115 -35.0625 19.5625 C-35.041875 20.366875 -35.02125 21.17125 -35 22 C-33.35 22 -31.7 22 -30 22 C-30 20.02 -30 18.04 -30 16 C-31.32 16 -32.64 16 -34 16 Z " fill="#5094F7" transform="translate(327,422)"/>
<path d="M0 0 C2.9375 1 2.9375 1 5 3 C6.20079943 9.27241116 5.87660632 15.16074984 5.4375 21.5 C4.84154824 31.71275825 4.72483512 42.17450535 8 52 C8.33789897 55.71688866 8.51780159 58.10561544 6.625 61.375 C2.61191361 63.85929157 -1.32716973 64.19900066 -6 64 C-10.14877262 62.51829549 -11.55257875 61.67113187 -14 58 C-14.28088379 55.66079712 -14.28088379 55.66079712 -14.32226562 52.87353516 C-14.34148071 51.82880035 -14.3606958 50.78406555 -14.38049316 49.70767212 C-14.38899292 48.57953094 -14.39749268 47.45138977 -14.40625 46.2890625 C-14.41765015 45.12877533 -14.42905029 43.96848816 -14.4407959 42.77304077 C-14.45969824 40.31682994 -14.47276481 37.86056836 -14.48046875 35.40429688 C-14.49989025 31.64623645 -14.56193076 27.89035961 -14.625 24.1328125 C-14.6380594 21.74740884 -14.64856061 19.36198952 -14.65625 16.9765625 C-14.6809436 15.85246979 -14.70563721 14.72837708 -14.7310791 13.57022095 C-14.68764867 5.96515877 -14.68764867 5.96515877 -12.69581604 3.16949463 C-8.29831118 -0.62156617 -5.49286733 -0.69750696 0 0 Z " fill="#1B84F8" transform="translate(295,344)"/>
<path d="M0 0 C8.25 0 16.5 0 25 0 C25.70125 3.650625 26.4025 7.30125 27.125 11.0625 C30.10993471 25.74114614 35.01332202 45.01332202 46 56 C45.67 56.99 45.34 57.98 45 59 C25.91208042 49.84654593 11.0608552 35.9260084 3 16 C1.12235384 10.48129094 0 5.85890336 0 0 Z " fill="#1B84F8" transform="translate(196,196)"/>
<path d="M0 0 C8.25 0 16.5 0 25 0 C22.67107305 13.97356171 22.67107305 13.97356171 19.3125 20.6875 C18.7851123 21.77466309 18.7851123 21.77466309 18.24707031 22.88378906 C15.45013878 28.4801651 12.14163463 33.30614742 8 38 C7.40960938 38.78890625 6.81921875 39.5778125 6.2109375 40.390625 C3.54482937 43.53719785 0.62075254 45.975086 -2.625 48.5 C-3.24020508 48.98122314 -3.85541016 49.46244629 -4.48925781 49.95825195 C-16.3113088 59 -16.3113088 59 -22 59 C-20.54084668 55.87213412 -18.76508254 52.99666777 -16.9284668 50.07836914 C-7.22273052 34.50535745 -2.02480642 18.22325781 0 0 Z " fill="#1B84F8" transform="translate(297,196)"/>
<path d="M0 0 C8.25 0 16.5 0 25 0 C25 19.47 25 38.94 25 59 C18.23546526 53.36288772 18.23546526 53.36288772 16.69140625 50.6796875 C16.16474365 49.7681189 16.16474365 49.7681189 15.62744141 48.83813477 C15.10029541 47.86638306 15.10029541 47.86638306 14.5625 46.875 C14.18270996 46.18269287 13.80291992 45.49038574 13.41162109 44.77709961 C6.29735478 31.37861439 0 15.41127058 0 0 Z " fill="#1B84F8" transform="translate(230,196)"/>
<path d="M0 0 C7.92 0 15.84 0 24 0 C24 19.78644044 15.64254906 39.25796183 4 55 C3.34 55.99 2.68 56.98 2 58 C1.34 58 0.68 58 0 58 C0 38.86 0 19.72 0 0 Z " fill="#1B84F8" transform="translate(264,196)"/>
<path d="M0 0 C7.21930632 1.44386126 14.05110733 3.57788174 21 6 C20.61378945 10.86828564 20.16786296 15.62510959 19 20.375 C17.82042005 25.83055726 17.46352855 31.4376574 17 37 C8.42 37 -0.16 37 -9 37 C-8.5282926 23.43841218 -6.62425434 12.06560611 0 0 Z " fill="#1B84F8" transform="translate(204,151)"/>
<path d="M0 0 C4.00312642 4.00312642 5.21223387 6.73374778 6.6875 11.9375 C7.00557617 12.99227539 7.00557617 12.99227539 7.33007812 14.06835938 C9.79723905 22.37265181 10.08753874 29.33366491 10 38 C2.41 38 -5.18 38 -13 38 C-14.99151226 34.01697548 -15.55141296 30.82441994 -16 26.5 C-16.16204594 25.07268628 -16.32613136 23.64560273 -16.4921875 22.21875 C-16.57436523 21.51105469 -16.65654297 20.80335938 -16.74121094 20.07421875 C-17.32985286 15.3561982 -18.18060845 10.68223743 -19 6 C-12.73 4.02 -6.46 2.04 0 0 Z " fill="#1B84F8" transform="translate(312,150)"/>
<path d="M0 0 C3 1 3 1 4.68359375 3.88671875 C5.2823077 5.14705379 5.86605663 6.41456823 6.4375 7.6875 C6.74316895 8.35579834 7.04883789 9.02409668 7.36376953 9.71264648 C17.17397305 31.82069654 17.87177983 55.92154284 9.75 78.625 C3.19854989 94.6159655 -8.21417685 111.09750678 -24.69140625 118.15234375 C-26.76623116 118.85694 -28.88049758 119.44406494 -31 120 C-28.39788372 117.34487765 -25.7742414 114.76620595 -22.984375 112.30859375 C-4.70805815 96.16905323 7.40450645 75.53916293 9.2265625 50.94140625 C9.60712105 37.08561539 6.73041819 24.54795751 1 12 C0.32508489 10.32391929 -0.32374167 8.63692863 -0.9375 6.9375 C-1.19402344 6.24527344 -1.45054687 5.55304688 -1.71484375 4.83984375 C-2 3 -2 3 0 0 Z " fill="#1B84F8" transform="translate(324,139)"/>
<path d="M0 0 C0.99 0.33 1.98 0.66 3 1 C4 4 4 4 2.92578125 6.6796875 C2.39339844 7.73414063 1.86101562 8.78859375 1.3125 9.875 C-7.76923383 28.77767856 -10.66938356 50.90028598 -3.74072266 71.04980469 C0.03351874 80.98673294 5.0102603 89.96852025 12 98 C12.6496875 98.86238281 12.6496875 98.86238281 13.3125 99.7421875 C18.77391956 106.79652109 26.63690969 112.09127313 34 117 C33.67 117.66 33.34 118.32 33 119 C12.50185737 109.693544 -1.13307536 95.65490388 -9.3203125 74.60546875 C-16.84725227 51.55073102 -14.8680067 28.88230485 -5 7 C-3.47847098 4.40468358 -1.95183553 2.2962771 0 0 Z " fill="#1B84F8" transform="translate(192,141)"/>
<path d="M0 0 C2.75031587 0.14111883 5.50015418 0.28771165 8.25 0.4375 C9.41595703 0.49647461 9.41595703 0.49647461 10.60546875 0.55664062 C11.73662109 0.61948242 11.73662109 0.61948242 12.890625 0.68359375 C13.92751465 0.73858032 13.92751465 0.73858032 14.98535156 0.79467773 C17 1 17 1 21 2 C21 10.91 21 19.82 21 29 C12.75 29 4.5 29 -4 29 C-3.55944493 18.86723339 -2.67027168 9.80779034 0 0 Z " fill="#1B84F8" transform="translate(234,159)"/>
<path d="M0 0 C1.30710937 -0.03996094 2.61421875 -0.07992188 3.9609375 -0.12109375 C8.47596064 0.56723067 9.79922865 1.9386813 12.625 5.4375 C16.12795727 10.69193591 15.28893403 17.33062161 14.625 23.4375 C13.05881297 26.84352013 11.01480009 28.74259996 7.625 30.4375 C-4.06736974 31.63555086 -4.06736974 31.63555086 -8.8203125 29.16796875 C-12.26683468 26.2045365 -14.24976585 24.03885471 -14.61328125 19.390625 C-14.83832664 8.16204449 -14.83832664 8.16204449 -12.5625 4.6875 C-8.44764102 0.45507362 -5.77992195 0.09652129 0 0 Z M-3.375 8.4375 C-5.13028019 10.5822024 -5.13028019 10.5822024 -6.375 13.4375 C-5.67559064 16.70564404 -5.67559064 16.70564404 -4.375 19.4375 C0.15640653 20.37130961 0.15640653 20.37130961 4.625 19.4375 C5.82488045 14.15550407 5.82488045 14.15550407 3.625 9.4375 C0.05730448 8.70143501 0.05730448 8.70143501 -3.375 8.4375 Z " fill="#1B84F8" transform="translate(290.375,301.5625)"/>
<path d="M0 0 C0.4839655 1.54016694 0.96192387 3.08222194 1.4375 4.625 C1.70433594 5.48351562 1.97117187 6.34203125 2.24609375 7.2265625 C4.23420672 14.54034595 4.07695098 21.45880388 4 29 C-3.92 29 -11.84 29 -20 29 C-20 20.09 -20 11.18 -20 2 C-17.81375 1.67 -15.6275 1.34 -13.375 1 C-12.14523437 0.814375 -10.91546875 0.62875 -9.6484375 0.4375 C-6.3833973 0.04597484 -3.28287549 -0.08080924 0 0 Z " fill="#1B84F8" transform="translate(284,159)"/>
<path d="M0 0 C2.31 0 4.62 0 7 0 C7 9.24 7 18.48 7 28 C4.69 28 2.38 28 0 28 C0 18.76 0 9.52 0 0 Z " fill="#5094F7" transform="translate(252,422)"/>
<path d="M0 0 C2.31 0 4.62 0 7 0 C7 9.24 7 18.48 7 28 C4.69 28 2.38 28 0 28 C0 18.76 0 9.52 0 0 Z " fill="#5094F7" transform="translate(149,422)"/>
<path d="M0 0 C0 1.32 0 2.64 0 4 C-3.64431684 5.44136505 -7.29072225 6.87737392 -10.9375 8.3125 C-12.46987305 8.91868164 -12.46987305 8.91868164 -14.03320312 9.53710938 C-17.0156958 10.70914324 -20.00432689 11.8621008 -23 13 C-23.86512207 13.32919434 -24.73024414 13.65838867 -25.62158203 13.99755859 C-26.40774902 14.28066895 -27.19391602 14.5637793 -28.00390625 14.85546875 C-28.68396729 15.10321045 -29.36402832 15.35095215 -30.06469727 15.60620117 C-32.34505556 16.07021252 -33.80868007 15.71556423 -36 15 C-32.83603043 11.35814681 -29.8629555 9.88491648 -25.37109375 8.203125 C-24.74018326 7.9646283 -24.10927277 7.72613159 -23.45924377 7.48040771 C-22.13238804 6.98130135 -20.8035541 6.48742575 -19.47290039 5.99853516 C-17.43613715 5.2494988 -15.40633708 4.48362041 -13.37695312 3.71484375 C-3.45234855 0 -3.45234855 0 0 0 Z " fill="#1B84F8" transform="translate(344,99)"/>
<path d="M0 0 C1.2065625 0.0309375 1.2065625 0.0309375 2.4375 0.0625 C2.4375 0.7225 2.4375 1.3825 2.4375 2.0625 C3.0975 2.0625 3.7575 2.0625 4.4375 2.0625 C4.4375 1.4025 4.4375 0.7425 4.4375 0.0625 C6.10361905 0.019779 7.77132885 0.02186168 9.4375 0.0625 C10.4375 1.0625 10.4375 1.0625 10.5 3.625 C10.479375 4.429375 10.45875 5.23375 10.4375 6.0625 C5.50353122 7.15893751 1.37146878 7.15893751 -3.5625 6.0625 C-3.605221 4.39638095 -3.60313832 2.72867115 -3.5625 1.0625 C-2.5625 0.0625 -2.5625 0.0625 0 0 Z " fill="#5094F7" transform="translate(312.5625,451.9375)"/>
<path d="M0 0 C2 0.33333333 4 0.66666667 6 1 C6.33 0.67 6.66 0.34 7 0 C8.66617115 -0.04063832 10.33388095 -0.042721 12 0 C12.625 2.375 12.625 2.375 13 5 C12.34 5.66 11.68 6.32 11 7 C8.99650739 6.68834559 6.99673484 6.35236497 5 6 C3.32656552 6.29749946 1.65694085 6.62127066 0 7 C-1 6 -1 6 -1.125 3.5 C-1 1 -1 1 0 0 Z " fill="#5094F7" transform="translate(175,421)"/>
<path d="M0 0 C1.4540625 0.0309375 1.4540625 0.0309375 2.9375 0.0625 C2.9375 1.3825 2.9375 2.7025 2.9375 4.0625 C1.6175 4.0625 0.2975 4.0625 -1.0625 4.0625 C-1.0625 4.7225 -1.0625 5.3825 -1.0625 6.0625 C0.2575 6.0625 1.5775 6.0625 2.9375 6.0625 C2.9375 7.3825 2.9375 8.7025 2.9375 10.0625 C-0.3625 10.0625 -3.6625 10.0625 -7.0625 10.0625 C-7.0625 8.7425 -7.0625 7.4225 -7.0625 6.0625 C-6.4025 6.0625 -5.7425 6.0625 -5.0625 6.0625 C-4.918125 5.258125 -4.77375 4.45375 -4.625 3.625 C-3.8465 0.0785 -3.8465 0.0785 0 0 Z " fill="#5094F7" transform="translate(256.0625,453.9375)"/>
<path d="M0 0 C1.67542976 0.28604898 3.34385343 0.61781233 5 1 C5.625 2.875 5.625 2.875 6 5 C5.34 5.66 4.68 6.32 4 7 C1.375 6.625 1.375 6.625 -1 6 C-1.042721 4.33388095 -1.04063832 2.66617115 -1 1 C-0.67 0.67 -0.34 0.34 0 0 Z " fill="#5094F7" transform="translate(367,421)"/>
<path d="M0 0 C2.625 0.375 2.625 0.375 5 1 C5 2.65 5 4.3 5 6 C3.35 6.33 1.7 6.66 0 7 C-0.66 5.35 -1.32 3.7 -2 2 C-1.34 1.34 -0.68 0.68 0 0 Z " fill="#5094F7" transform="translate(360,421)"/>
</svg>
